<?xml version="1.0" encoding="utf-8"?>

<svg version="1.1" id="Layer_1" xmlns="http://www.w3.org/2000/svg" xmlns:xlink="http://www.w3.org/1999/xlink" x="0px" y="0px"
	 viewBox="0 0 420 150" style="enable-background:new 0 0 420 150;" xml:space="preserve">
<style type="text/css">.st0{fill:#1E72B8;}.st1{fill:#2072B9;}
</style>
<g><path class="st0" d="M192,101.6c-0.6-0.6-1.2-1.1-2-1.5c-0.7-0.4-1.5-0.8-2.2-1.2c-0.8-0.4-1.5-0.7-2.2-1c-0.7-0.3-1.4-0.7-2-1.1
		c-0.6-0.4-1-0.9-1.4-1.4c-0.3-0.5-0.5-1.2-0.5-1.9c0-0.5,0.1-1,0.3-1.4c0.2-0.5,0.5-0.9,0.8-1.2c0.4-0.3,0.8-0.6,1.4-0.8
		c0.6-0.2,1.2-0.3,2-0.3c0.8,0,1.5,0.1,2.2,0.3c0.6,0.2,1.2,0.4,1.7,0.7c0.5,0.2,0.9,0.5,1.2,0.7c0.3,0.2,0.6,0.3,0.7,0.3
		c0.1,0,0.2,0,0.3-0.1c0.1-0.1,0.1-0.2,0.2-0.3c0-0.1,0.1-0.3,0.1-0.5c0-0.2,0-0.4,0-0.7c0-0.3,0-0.5,0-0.6c0-0.2,0-0.3-0.1-0.4
		c0-0.1-0.1-0.2-0.1-0.3c0-0.1-0.1-0.2-0.3-0.3c-0.1-0.1-0.4-0.3-0.8-0.5c-0.4-0.2-0.9-0.4-1.4-0.6c-0.5-0.2-1.1-0.3-1.7-0.4
		c-0.6-0.1-1.2-0.2-1.8-0.2c-1.2,0-2.2,0.2-3.2,0.5c-1,0.3-1.9,0.8-2.6,1.4c-0.7,0.6-1.3,1.3-1.7,2.2c-0.4,0.9-0.6,1.9-0.6,3
		c0,1.1,0.2,2,0.5,2.8c0.4,0.8,0.8,1.5,1.4,2c0.6,0.6,1.2,1.1,1.9,1.5c0.7,0.4,1.5,0.8,2.2,1.2c0.8,0.4,1.5,0.7,2.2,1
		c0.7,0.3,1.4,0.7,1.9,1.1c0.6,0.4,1,0.9,1.4,1.4c0.3,0.5,0.5,1.2,0.5,2c0,0.7-0.1,1.3-0.4,1.9c-0.2,0.6-0.6,1-1.1,1.4
		c-0.5,0.4-1,0.7-1.7,0.9c-0.6,0.2-1.4,0.3-2.1,0.3c-1,0-1.9-0.1-2.7-0.4c-0.8-0.2-1.4-0.5-2-0.8c-0.6-0.3-1-0.5-1.4-0.8
		c-0.4-0.2-0.6-0.4-0.8-0.4c-0.1,0-0.2,0-0.3,0.1c-0.1,0.1-0.2,0.1-0.2,0.3c-0.1,0.1-0.1,0.3-0.1,0.5c0,0.2,0,0.5,0,0.8
		c0,0.4,0,0.8,0.1,1c0.1,0.3,0.2,0.5,0.4,0.6c0.2,0.2,0.4,0.4,0.9,0.6c0.4,0.2,0.9,0.5,1.5,0.7c0.6,0.2,1.3,0.4,2.1,0.6
		c0.8,0.2,1.6,0.2,2.5,0.2c1.3,0,2.5-0.2,3.6-0.5c1.1-0.3,2.1-0.9,2.9-1.5c0.8-0.7,1.5-1.5,1.9-2.5c0.5-1,0.7-2.1,0.7-3.4
		c0-1.1-0.2-2-0.5-2.8C193,102.9,192.6,102.2,192,101.6z"/>
	<path class="st0" d="M222.7,111.4c-0.1-0.1-0.2-0.2-0.2-0.3c-0.1-0.1-0.2-0.1-0.3-0.1h-10.7v-9.6h9c0.1,0,0.2,0,0.3-0.1
		c0.1-0.1,0.2-0.1,0.2-0.2c0.1-0.1,0.1-0.3,0.1-0.4c0-0.2,0-0.4,0-0.6c0-0.3,0-0.5,0-0.7c0-0.2-0.1-0.3-0.1-0.5
		c-0.1-0.1-0.1-0.2-0.2-0.3c-0.1-0.1-0.2-0.1-0.3-0.1h-9v-8.4H222c0.1,0,0.2,0,0.3-0.1c0.1-0.1,0.2-0.1,0.2-0.3
		c0.1-0.1,0.1-0.3,0.1-0.5c0-0.2,0.1-0.4,0.1-0.7c0-0.3,0-0.5-0.1-0.7c0-0.2-0.1-0.3-0.1-0.5c-0.1-0.1-0.1-0.2-0.2-0.3
		c-0.1-0.1-0.2-0.1-0.3-0.1h-12.7c-0.3,0-0.6,0.1-0.9,0.3c-0.3,0.2-0.4,0.6-0.4,1.1v24c0,0.5,0.1,0.9,0.4,1.1
		c0.3,0.2,0.6,0.3,0.9,0.3h12.9c0.1,0,0.2,0,0.3-0.1c0.1-0.1,0.2-0.1,0.2-0.3c0.1-0.1,0.1-0.3,0.1-0.5c0-0.2,0-0.4,0-0.7
		c0-0.3,0-0.5,0-0.7C222.8,111.6,222.8,111.5,222.7,111.4z"/>
	<path class="st0" d="M255.4,108.9c0-0.1-0.1-0.2-0.2-0.2c-0.1,0-0.2-0.1-0.3-0.1c-0.2,0-0.5,0.1-0.9,0.4c-0.4,0.3-0.8,0.6-1.4,0.9
		c-0.6,0.3-1.2,0.6-2,0.9c-0.8,0.3-1.7,0.4-2.8,0.4c-1.3,0-2.4-0.2-3.4-0.7c-1-0.5-1.8-1.1-2.5-2c-0.7-0.9-1.2-2-1.6-3.3
		c-0.4-1.3-0.6-2.8-0.6-4.5c0-1.7,0.2-3.2,0.6-4.6c0.4-1.3,0.9-2.5,1.6-3.4c0.7-0.9,1.5-1.6,2.5-2.1c1-0.5,2.1-0.7,3.3-0.7
		c1.1,0,2,0.1,2.8,0.4c0.8,0.3,1.5,0.6,2,0.9c0.5,0.3,1,0.6,1.3,0.9c0.3,0.3,0.6,0.4,0.8,0.4c0.1,0,0.2,0,0.3-0.1s0.1-0.2,0.2-0.3
		c0.1-0.1,0.1-0.3,0.1-0.5c0-0.2,0-0.4,0-0.7c0-0.2,0-0.5,0-0.6c0-0.2-0.1-0.3-0.1-0.5c0-0.1-0.1-0.2-0.1-0.3
		c-0.1-0.1-0.2-0.2-0.4-0.4c-0.2-0.2-0.5-0.4-1-0.7c-0.5-0.3-1-0.5-1.7-0.8s-1.3-0.4-2-0.5c-0.7-0.1-1.5-0.2-2.3-0.2
		c-1.8,0-3.4,0.3-4.8,1c-1.4,0.6-2.7,1.6-3.7,2.8c-1,1.2-1.8,2.7-2.4,4.4c-0.6,1.7-0.9,3.7-0.9,6c0,2.2,0.3,4.1,0.8,5.8
		c0.5,1.7,1.3,3.1,2.3,4.2c1,1.1,2.2,2,3.6,2.6c1.4,0.6,3,0.9,4.7,0.9c1,0,1.9-0.1,2.8-0.3c0.8-0.2,1.6-0.4,2.3-0.7
		c0.7-0.3,1.2-0.5,1.7-0.8c0.4-0.3,0.7-0.5,0.9-0.6c0.1-0.1,0.2-0.3,0.3-0.4c0.1-0.1,0.1-0.2,0.1-0.3c0-0.1,0.1-0.3,0.1-0.4
		c0-0.2,0-0.4,0-0.6c0-0.3,0-0.6,0-0.8C255.5,109.2,255.5,109,255.4,108.9z"/>
	<path class="st0" d="M289,87.2c-0.1,0-0.3-0.1-0.5-0.1c-0.2,0-0.5-0.1-0.8-0.1c-0.3,0-0.6,0-0.9,0.1c-0.2,0-0.4,0.1-0.5,0.1
		c-0.1,0-0.2,0.1-0.3,0.2c-0.1,0.1-0.1,0.2-0.1,0.3v16.4c0,1.2-0.1,2.3-0.4,3.2c-0.3,0.9-0.7,1.7-1.3,2.3c-0.6,0.6-1.2,1.1-2.1,1.4
		c-0.8,0.3-1.7,0.5-2.8,0.5c-1,0-1.9-0.2-2.7-0.5c-0.8-0.3-1.5-0.8-2.1-1.4c-0.6-0.6-1-1.4-1.3-2.3s-0.5-2-0.5-3.3V87.7
		c0-0.1,0-0.2-0.1-0.3c-0.1-0.1-0.1-0.1-0.3-0.2c-0.1,0-0.3-0.1-0.5-0.1c-0.2,0-0.5-0.1-0.9-0.1c-0.4,0-0.6,0-0.9,0.1
		c-0.2,0-0.4,0.1-0.5,0.1c-0.1,0-0.2,0.1-0.3,0.2c-0.1,0.1-0.1,0.2-0.1,0.3v16.7c0,1.6,0.2,3.1,0.7,4.4c0.5,1.3,1.1,2.3,2,3.1
		c0.9,0.8,1.9,1.5,3.1,1.9c1.2,0.4,2.6,0.6,4,0.6c1.6,0,3.1-0.2,4.3-0.7c1.3-0.5,2.4-1.1,3.2-2c0.9-0.9,1.6-2,2-3.3
		c0.5-1.3,0.7-2.7,0.7-4.4V87.7c0-0.1,0-0.2-0.1-0.3C289.3,87.3,289.2,87.2,289,87.2z"/>
	<path class="st0" d="M322.9,111.9l-2.4-5.9c-0.3-0.7-0.6-1.3-0.8-1.8c-0.3-0.5-0.6-1-0.9-1.4c-0.3-0.4-0.6-0.8-1-1.1
		c-0.4-0.3-0.8-0.5-1.2-0.7c0.8-0.3,1.5-0.6,2.1-1c0.6-0.4,1.2-0.9,1.6-1.4c0.5-0.5,0.8-1.2,1-1.9c0.2-0.7,0.4-1.5,0.4-2.4
		c0-0.9-0.1-1.8-0.4-2.5c-0.3-0.8-0.7-1.4-1.2-2c-0.5-0.6-1.2-1.1-2-1.5c-0.8-0.4-1.7-0.7-2.7-0.9c-0.4,0-0.8-0.1-1.2-0.1
		c-0.5,0-1-0.1-1.7-0.1h-5.7c-0.3,0-0.6,0.1-0.9,0.3c-0.3,0.2-0.4,0.6-0.4,1.1v24.9c0,0.1,0,0.2,0.1,0.3c0.1,0.1,0.2,0.1,0.3,0.2
		s0.3,0.1,0.5,0.1c0.2,0,0.5,0.1,0.9,0.1c0.3,0,0.6,0,0.9-0.1c0.2,0,0.4-0.1,0.5-0.1c0.1,0,0.2-0.1,0.3-0.2c0.1-0.1,0.1-0.2,0.1-0.3
		V102h2.4c0.8,0,1.5,0.1,2.1,0.4c0.6,0.2,1.1,0.6,1.5,1c0.4,0.4,0.8,1,1.1,1.6c0.3,0.6,0.6,1.3,0.9,2l2.5,6.3
		c0.1,0.2,0.1,0.3,0.2,0.4c0.1,0.1,0.2,0.2,0.3,0.3s0.3,0.1,0.5,0.1c0.2,0,0.5,0,0.9,0c0.4,0,0.7,0,1,0c0.2,0,0.4-0.1,0.6-0.1
		c0.1-0.1,0.2-0.1,0.3-0.2c0-0.1,0.1-0.2,0.1-0.3c0-0.1,0-0.3-0.1-0.5C323.2,112.8,323.1,112.4,322.9,111.9z M314.9,98.8
		c-0.7,0.2-1.5,0.3-2.4,0.3H309v-9.1h3c0.7,0,1.3,0,1.7,0.1c0.4,0,0.8,0.1,1.2,0.2c1.1,0.3,1.9,0.8,2.4,1.6c0.5,0.7,0.7,1.6,0.7,2.7
		c0,0.7-0.1,1.3-0.3,1.8c-0.2,0.6-0.5,1-1,1.4C316.2,98.2,315.6,98.6,314.9,98.8z"/>
	<path class="st0" d="M340.6,87.2c-0.1,0-0.3-0.1-0.5-0.1c-0.2,0-0.5-0.1-0.9-0.1c-0.3,0-0.6,0-0.8,0.1c-0.2,0-0.4,0.1-0.6,0.1
		c-0.1,0-0.2,0.1-0.3,0.2c-0.1,0.1-0.1,0.2-0.1,0.3v25.8c0,0.1,0,0.2,0.1,0.3c0.1,0.1,0.1,0.1,0.3,0.2c0.1,0,0.3,0.1,0.6,0.1
		c0.2,0,0.5,0.1,0.9,0.1c0.3,0,0.6,0,0.9-0.1c0.2,0,0.4-0.1,0.5-0.1c0.1,0,0.2-0.1,0.3-0.2c0.1-0.1,0.1-0.2,0.1-0.3V87.7
		c0-0.1,0-0.2-0.1-0.3C340.9,87.3,340.8,87.2,340.6,87.2z"/>
	<path class="st0" d="M373.7,87.5c-0.1-0.1-0.1-0.2-0.2-0.3c-0.1-0.1-0.2-0.1-0.3-0.1h-18.7c-0.1,0-0.2,0-0.3,0.1
		c-0.1,0.1-0.2,0.1-0.2,0.3c-0.1,0.1-0.1,0.3-0.1,0.5c0,0.2-0.1,0.4-0.1,0.7c0,0.3,0,0.5,0.1,0.7c0,0.2,0.1,0.3,0.1,0.5
		c0.1,0.1,0.1,0.2,0.2,0.3c0.1,0.1,0.2,0.1,0.3,0.1h7.6v23.3c0,0.1,0,0.2,0.1,0.3c0.1,0.1,0.2,0.1,0.3,0.2s0.3,0.1,0.6,0.1
		c0.2,0,0.5,0.1,0.8,0.1c0.3,0,0.6,0,0.9-0.1c0.2,0,0.4-0.1,0.5-0.1c0.1,0,0.2-0.1,0.3-0.2c0.1-0.1,0.1-0.2,0.1-0.3V90.2h7.6
		c0.1,0,0.2,0,0.3-0.1c0.1-0.1,0.2-0.1,0.2-0.3c0.1-0.1,0.1-0.3,0.1-0.5c0-0.2,0-0.4,0-0.7c0-0.3,0-0.5,0-0.7
		C373.9,87.8,373.8,87.6,373.7,87.5z"/>
	<path class="st0" d="M402.5,87.1c-0.3,0-0.7-0.1-1.2-0.1c-0.4,0-0.7,0-0.9,0c-0.2,0-0.4,0.1-0.5,0.1c-0.1,0.1-0.2,0.1-0.3,0.2
		c-0.1,0.1-0.1,0.2-0.2,0.4l-3.7,7.8c-0.3,0.8-0.7,1.5-1,2.3c-0.3,0.8-0.7,1.6-1,2.4h0c-0.4-0.8-0.7-1.6-1.1-2.4
		c-0.3-0.8-0.7-1.6-1-2.3l-3.7-7.7c-0.1-0.1-0.1-0.3-0.2-0.3c-0.1-0.1-0.2-0.2-0.3-0.2c-0.2,0-0.4-0.1-0.6-0.1c-0.3,0-0.6,0-1,0
		c-0.5,0-0.8,0-1.1,0c-0.3,0-0.5,0.1-0.6,0.2c-0.1,0.1-0.1,0.2-0.1,0.4c0,0.2,0.1,0.4,0.3,0.7l7.6,15.2v9.9c0,0.1,0,0.2,0.1,0.3
		c0.1,0.1,0.2,0.1,0.3,0.2c0.1,0,0.3,0.1,0.6,0.1c0.2,0,0.5,0.1,0.9,0.1c0.3,0,0.6,0,0.8-0.1c0.2,0,0.4-0.1,0.6-0.1s0.2-0.1,0.3-0.2
		c0.1-0.1,0.1-0.2,0.1-0.3v-9.9l7.6-15.2c0.2-0.3,0.2-0.5,0.3-0.7c0-0.2,0-0.3-0.1-0.4C402.9,87.2,402.7,87.1,402.5,87.1z"/>
	<path class="st0" d="M199.5,55.2c-0.7-0.9-1.6-1.6-2.5-2.1c-1-0.5-2-0.9-3.1-1.1c0.9-0.4,1.6-0.8,2.3-1.4c0.7-0.6,1.2-1.2,1.7-2
		c0.4-0.7,0.8-1.5,1-2.4c0.2-0.9,0.3-1.8,0.3-2.7c0-1.6-0.3-3-0.8-4.3c-0.5-1.3-1.3-2.3-2.3-3.2c-1-0.9-2.3-1.5-3.8-2
		c-1.5-0.5-3.5-0.7-5.9-0.7h-9.2c-0.5,0-0.9,0.2-1.4,0.5c-0.4,0.3-0.6,0.9-0.6,1.7v35.9c0,0.8,0.2,1.4,0.6,1.7
		c0.4,0.3,0.9,0.5,1.4,0.5h10.5c1.5,0,2.9-0.1,4-0.3c1.2-0.2,2.3-0.5,3.3-1s2-1,2.8-1.6c0.8-0.6,1.5-1.4,2.1-2.2
		c0.6-0.8,1-1.8,1.4-2.9c0.3-1.1,0.5-2.2,0.5-3.5c0-1.4-0.2-2.6-0.6-3.8C200.8,57,200.2,56.1,199.5,55.2z M180.6,37.6h5.5
		c1.5,0,2.8,0.1,3.7,0.4c0.9,0.3,1.7,0.7,2.3,1.3c0.6,0.5,1,1.2,1.3,2c0.3,0.8,0.4,1.7,0.4,2.6c0,0.9-0.1,1.7-0.4,2.5
		c-0.3,0.8-0.7,1.5-1.2,2.1c-0.6,0.6-1.3,1.1-2.1,1.5c-0.8,0.4-2,0.5-3.4,0.5h-6.1V37.6z M195.6,65.2c-0.4,0.8-0.9,1.6-1.6,2.1
		c-0.7,0.6-1.5,1-2.4,1.3c-0.9,0.3-2,0.4-3.2,0.4h-7.8V54.9h6.4c1.7,0,3.1,0.2,4.2,0.5c1.1,0.3,2,0.8,2.8,1.4
		c0.7,0.6,1.3,1.4,1.7,2.3c0.4,0.9,0.6,2,0.6,3.2C196.2,63.4,196,64.4,195.6,65.2z"/>
	<path class="st0" d="M232.1,69.6c-0.1-0.2-0.2-0.3-0.4-0.4c-0.1-0.1-0.3-0.1-0.5-0.1h-16V54.6h13.5c0.2,0,0.3,0,0.5-0.1
		c0.1-0.1,0.2-0.2,0.3-0.4c0.1-0.2,0.2-0.4,0.2-0.7c0-0.3,0.1-0.6,0.1-1c0-0.4,0-0.7-0.1-1c0-0.3-0.1-0.5-0.2-0.7
		c-0.1-0.2-0.2-0.3-0.3-0.4c-0.1-0.1-0.3-0.1-0.5-0.1h-13.5V37.7H231c0.2,0,0.3,0,0.5-0.1c0.1-0.1,0.2-0.2,0.3-0.4
		c0.1-0.2,0.1-0.4,0.2-0.7s0.1-0.6,0.1-1c0-0.4,0-0.8-0.1-1s-0.1-0.5-0.2-0.7s-0.2-0.3-0.3-0.4c-0.1-0.1-0.3-0.1-0.5-0.1h-19.1
		c-0.5,0-0.9,0.2-1.4,0.5c-0.4,0.3-0.6,0.9-0.6,1.7v35.9c0,0.8,0.2,1.4,0.6,1.7c0.4,0.3,0.9,0.5,1.4,0.5h19.3c0.2,0,0.3,0,0.5-0.1
		c0.1-0.1,0.3-0.2,0.4-0.4c0.1-0.2,0.2-0.4,0.2-0.7c0-0.3,0.1-0.6,0.1-1c0-0.4,0-0.8-0.1-1C232.2,70,232.2,69.7,232.1,69.6z"/>
	<path class="st0" d="M267.2,70.4l-3.6-8.9c-0.4-1-0.8-1.9-1.2-2.7c-0.4-0.8-0.9-1.5-1.3-2.1c-0.5-0.6-1-1.2-1.5-1.6
		c-0.5-0.4-1.1-0.8-1.8-1.1c1.2-0.4,2.3-0.9,3.2-1.5c1-0.6,1.8-1.3,2.5-2.1c0.7-0.8,1.2-1.8,1.6-2.8c0.4-1.1,0.5-2.3,0.5-3.6
		c0-1.4-0.2-2.7-0.6-3.8c-0.4-1.2-1-2.2-1.8-3.1c-0.8-0.9-1.8-1.6-3-2.2c-1.2-0.6-2.6-1-4.1-1.3c-0.5-0.1-1.1-0.1-1.8-0.2
		c-0.7-0.1-1.5-0.1-2.5-0.1h-8.6c-0.5,0-0.9,0.2-1.4,0.5c-0.4,0.3-0.6,0.9-0.6,1.7v37.3c0,0.2,0,0.3,0.1,0.4
		c0.1,0.1,0.2,0.2,0.4,0.3c0.2,0.1,0.5,0.1,0.8,0.2c0.3,0.1,0.8,0.1,1.3,0.1c0.5,0,0.9,0,1.3-0.1c0.3-0.1,0.6-0.1,0.8-0.2
		c0.2-0.1,0.3-0.2,0.4-0.3c0.1-0.1,0.1-0.3,0.1-0.4V55.5h3.6c1.2,0,2.3,0.2,3.1,0.5c0.9,0.4,1.6,0.9,2.3,1.5
		c0.6,0.7,1.2,1.4,1.7,2.3c0.5,0.9,0.9,1.9,1.4,3l3.7,9.5c0.1,0.2,0.2,0.5,0.3,0.6c0.1,0.2,0.3,0.3,0.5,0.4c0.2,0.1,0.5,0.2,0.8,0.2
		c0.3,0,0.8,0.1,1.3,0.1c0.6,0,1.1,0,1.5-0.1c0.4,0,0.7-0.1,0.9-0.2c0.2-0.1,0.3-0.2,0.4-0.3c0.1-0.1,0.1-0.3,0.1-0.4
		c0-0.2,0-0.4-0.1-0.7C267.7,71.7,267.5,71.2,267.2,70.4z M255.3,50.7c-1,0.3-2.2,0.5-3.7,0.5h-5.2V37.6h4.5c1.1,0,1.9,0,2.6,0.1
		s1.2,0.2,1.8,0.3c1.7,0.5,2.8,1.3,3.6,2.4c0.7,1.1,1.1,2.4,1.1,4c0,1-0.2,1.9-0.5,2.7c-0.3,0.8-0.8,1.6-1.5,2.2
		C257.2,49.9,256.3,50.4,255.3,50.7z"/>
	<path class="st0" d="M297.8,69.6c-0.1-0.2-0.2-0.3-0.4-0.4c-0.1-0.1-0.3-0.1-0.5-0.1h-16V54.6h13.5c0.2,0,0.3,0,0.5-0.1
		c0.1-0.1,0.2-0.2,0.3-0.4c0.1-0.2,0.2-0.4,0.2-0.7c0-0.3,0.1-0.6,0.1-1c0-0.4,0-0.7-0.1-1c0-0.3-0.1-0.5-0.2-0.7
		c-0.1-0.2-0.2-0.3-0.3-0.4c-0.1-0.1-0.3-0.1-0.5-0.1H281V37.7h15.8c0.2,0,0.3,0,0.5-0.1c0.1-0.1,0.2-0.2,0.3-0.4
		c0.1-0.2,0.2-0.4,0.2-0.7c0.1-0.3,0.1-0.6,0.1-1c0-0.4,0-0.8-0.1-1c-0.1-0.3-0.1-0.5-0.2-0.7c-0.1-0.2-0.2-0.3-0.3-0.4
		c-0.1-0.1-0.3-0.1-0.5-0.1h-19.1c-0.5,0-0.9,0.2-1.4,0.5c-0.4,0.3-0.6,0.9-0.6,1.7v35.9c0,0.8,0.2,1.4,0.6,1.7
		c0.4,0.3,0.9,0.5,1.4,0.5H297c0.2,0,0.3,0,0.5-0.1c0.1-0.1,0.3-0.2,0.4-0.4c0.1-0.2,0.2-0.4,0.2-0.7c0-0.3,0.1-0.6,0.1-1
		c0-0.4,0-0.8-0.1-1C298,70,297.9,69.7,297.8,69.6z"/>
	<path class="st0" d="M328.9,69h-19.7l18.5-29c0.3-0.4,0.5-0.8,0.7-1.1c0.2-0.3,0.3-0.6,0.4-0.9c0.1-0.3,0.2-0.5,0.2-0.8
		c0-0.3,0.1-0.6,0.1-0.9v-1.2c0-0.7-0.2-1.2-0.5-1.5c-0.3-0.3-0.8-0.5-1.3-0.5h-22.4c-0.2,0-0.4,0-0.5,0.1c-0.1,0.1-0.3,0.2-0.4,0.4
		c-0.1,0.2-0.2,0.4-0.2,0.7c0,0.3-0.1,0.6-0.1,1.1c0,0.4,0,0.7,0.1,1c0,0.3,0.1,0.5,0.2,0.7c0.1,0.2,0.2,0.3,0.4,0.4
		c0.1,0.1,0.3,0.1,0.5,0.1h18.4l-18.6,29.1c-0.3,0.4-0.5,0.8-0.7,1.1c-0.2,0.3-0.3,0.6-0.4,0.9c-0.1,0.3-0.2,0.5-0.2,0.7
		c0,0.2,0,0.5,0,0.8v1.1c0,0.7,0.2,1.3,0.5,1.6c0.3,0.3,0.8,0.5,1.3,0.5h23.8c0.2,0,0.3,0,0.5-0.1c0.1-0.1,0.2-0.2,0.3-0.4
		c0.1-0.2,0.2-0.4,0.2-0.7c0-0.3,0.1-0.6,0.1-1c0-0.8-0.1-1.4-0.3-1.7C329.5,69.2,329.2,69,328.9,69z"/>
	<path class="st0" d="M360.4,72.7c0,0.2,0,0.3,0.1,0.4c0.1,0.1,0.2,0.2,0.4,0.3c0.2,0.1,0.5,0.1,0.8,0.2c0.3,0.1,0.8,0.1,1.3,0.1
		c0.5,0,0.9,0,1.3-0.1c0.3-0.1,0.6-0.1,0.8-0.2c0.2-0.1,0.4-0.2,0.4-0.3c0.1-0.1,0.1-0.3,0.1-0.4V34c0-0.2,0-0.3-0.1-0.4
		c-0.1-0.1-0.2-0.2-0.4-0.3c-0.2-0.1-0.5-0.1-0.8-0.2c-0.3-0.1-0.8-0.1-1.3-0.1c-0.5,0-1,0-1.3,0.1c-0.3,0.1-0.6,0.1-0.8,0.2
		c-0.2,0.1-0.4,0.2-0.4,0.3c-0.1,0.1-0.1,0.3-0.1,0.4v16.1H342V34c0-0.2,0-0.3-0.1-0.4c-0.1-0.1-0.2-0.2-0.4-0.3
		c-0.2-0.1-0.5-0.1-0.8-0.2c-0.3-0.1-0.8-0.1-1.3-0.1c-0.5,0-0.9,0-1.3,0.1c-0.4,0.1-0.6,0.1-0.8,0.2c-0.2,0.1-0.4,0.2-0.4,0.3
		c-0.1,0.1-0.1,0.3-0.1,0.4v38.7c0,0.2,0,0.3,0.1,0.4c0.1,0.1,0.2,0.2,0.4,0.3c0.2,0.1,0.5,0.1,0.8,0.2c0.4,0.1,0.8,0.1,1.3,0.1
		c0.5,0,0.9,0,1.3-0.1c0.3-0.1,0.6-0.1,0.8-0.2c0.2-0.1,0.4-0.2,0.4-0.3c0.1-0.1,0.1-0.3,0.1-0.4V54.8h18.3V72.7z"/>
	<path class="st0" d="M406.6,71.6l-13.5-37.4c-0.1-0.2-0.2-0.4-0.3-0.6c-0.1-0.2-0.4-0.3-0.6-0.4c-0.3-0.1-0.6-0.1-1.1-0.2
		s-1,0-1.6,0c-0.6,0-1.1,0-1.5,0c-0.4,0-0.7,0.1-1,0.2c-0.3,0.1-0.5,0.2-0.6,0.3c-0.1,0.1-0.2,0.3-0.3,0.6l-13.5,37.4
		c-0.2,0.5-0.2,0.8-0.3,1.1c0,0.3,0.1,0.5,0.2,0.6c0.2,0.1,0.4,0.2,0.8,0.3c0.4,0.1,0.9,0.1,1.5,0.1c0.6,0,1.1,0,1.4-0.1
		c0.4,0,0.6-0.1,0.8-0.2c0.2-0.1,0.3-0.2,0.4-0.3c0.1-0.1,0.2-0.3,0.2-0.5l3.3-9.7h16.8l3.5,9.8c0.1,0.2,0.2,0.3,0.3,0.5
		c0.1,0.1,0.2,0.2,0.4,0.3c0.2,0.1,0.5,0.1,0.9,0.2c0.4,0,0.9,0,1.5,0c0.6,0,1.2,0,1.5-0.1c0.4,0,0.7-0.1,0.8-0.3
		c0.2-0.1,0.2-0.4,0.2-0.6C406.8,72.4,406.8,72.1,406.6,71.6z M382.3,58.7l6.9-20.1h0l7,20.1H382.3z"/>
	<path class="st0" d="M82.2,5.9C44.1,5.9,13.1,36.8,13.1,75c0,38.2,30.9,69.1,69.1,69.1c38.2,0,69.1-30.9,69.1-69.1
		C151.3,36.8,120.4,5.9,82.2,5.9z M141,81.6l-32.2,32.2L82.2,87.3l-26.6,26.6L23.4,81.6l5.6-5.6l26.6,26.6l20.9-20.9L50,55.1
		l32.2-32.2l32.2,32.2L87.9,81.6l20.9,20.9L135.4,76L141,81.6z"/>
	
		<rect x="67.4" y="40.3" transform="matrix(0.7071 -0.7071 0.7071 0.7071 -14.8558 74.2788)" class="st0" width="29.6" height="29.6"/>
</g>
</svg>
