<?xml version="1.0" encoding="utf-8"?>
<svg version="1.1" id="Layer_1" xmlns="http://www.w3.org/2000/svg" xmlns:xlink="http://www.w3.org/1999/xlink" x="0px" y="0px"
	 viewBox="0 0 460 460" style="enable-background:new 0 0 460 460;" xml:space="preserve">
<style type="text/css">
	.st0{fill:#D1D3D4;}
	.st1{fill:#292D48;}
	.st2{fill:#1C222F;}
	.st3{fill:#1372B9;}
	.st4{fill:#0B68A0;}
	.st5{fill:#E6E7E8;}
	.st6{fill:#00A79D;}
	.st7{fill:#F7941E;}
	.st8{fill:none;}
	.st9{fill:#EC008C;}
	.st10{fill:#F1F2F2;}
	.st11{fill:#27AAE1;}
	.st12{fill:#EE2A7B;}
</style>
<g>
	<g>
		<path class="st0" d="M219.9,455.6h-0.1c-6.7-0.3-13.5-0.9-20.1-1.8c-1.6-0.2-2.8-1.7-2.6-3.4c0.2-1.6,1.7-2.8,3.4-2.6
			c6.5,0.9,13.1,1.4,19.6,1.7c1.7,0.1,2.9,1.5,2.9,3.1C222.8,454.3,221.4,455.6,219.9,455.6z M239.8,455.6c-1.6,0-2.9-1.3-3-2.9
			c-0.1-1.7,1.2-3.1,2.9-3.1c6.5-0.3,13.1-0.9,19.6-1.8c1.6-0.2,3.2,0.9,3.4,2.6s-0.9,3.2-2.6,3.4c-6.6,0.9-13.4,1.5-20.1,1.8
			C239.9,455.6,239.8,455.6,239.8,455.6z M180.4,450.3c-0.2,0-0.4,0-0.7-0.1c-6.5-1.5-13.1-3.3-19.5-5.4c-1.6-0.5-2.4-2.2-1.9-3.8
			s2.2-2.4,3.8-1.9c6.2,2,12.6,3.8,19,5.2c1.6,0.4,2.6,2,2.3,3.6C183,449.4,181.7,450.3,180.4,450.3z M279.3,450.2
			c-1.4,0-2.6-0.9-2.9-2.3c-0.4-1.6,0.6-3.2,2.3-3.6c6.4-1.5,12.7-3.2,19-5.2c1.6-0.5,3.3,0.3,3.8,1.9c0.5,1.6-0.3,3.3-1.9,3.8
			c-6.4,2.1-12.9,3.9-19.5,5.4C279.7,450.2,279.5,450.2,279.3,450.2z M142.5,438c-0.4,0-0.8-0.1-1.2-0.2c-6.2-2.6-12.3-5.6-18.2-8.8
			c-1.5-0.8-2-2.6-1.2-4.1s2.6-2,4.1-1.2c5.8,3.1,11.7,6,17.7,8.5c1.5,0.7,2.2,2.4,1.6,3.9C144.7,437.3,143.6,438,142.5,438z
			 M317.1,437.9c-1.2,0-2.3-0.7-2.8-1.8c-0.7-1.5,0.1-3.3,1.6-3.9c6-2.6,12-5.4,17.7-8.5c1.5-0.8,3.3-0.2,4.1,1.2
			c0.8,1.5,0.2,3.3-1.2,4.1c-5.9,3.2-12,6.1-18.2,8.8C317.9,437.9,317.5,437.9,317.1,437.9z M107.4,419.1c-0.6,0-1.1-0.2-1.7-0.5
			c-5.6-3.7-11.1-7.7-16.4-11.9c-1.3-1-1.5-2.9-0.5-4.2s2.9-1.5,4.2-0.5c5.1,4.1,10.5,8,15.9,11.6c1.4,0.9,1.8,2.8,0.9,4.2
			C109.3,418.7,108.3,419.1,107.4,419.1z M352.2,419c-1,0-1.9-0.5-2.5-1.3c-0.9-1.4-0.5-3.2,0.8-4.2c5.4-3.6,10.8-7.5,15.9-11.6
			c1.3-1,3.2-0.8,4.2,0.5c1,1.3,0.8,3.2-0.5,4.2c-5.2,4.2-10.7,8.2-16.3,11.9C353.3,418.9,352.8,419,352.2,419z M76.2,394.3
			c-0.7,0-1.5-0.3-2.1-0.8c-4.9-4.6-9.6-9.5-14-14.6c-1.1-1.2-1-3.1,0.3-4.2c1.2-1.1,3.1-1,4.2,0.3c4.3,4.9,8.9,9.7,13.6,14.2
			c1.2,1.1,1.2,3,0.1,4.2C77.8,394,77,394.3,76.2,394.3z M383.3,394.1c-0.8,0-1.6-0.3-2.2-0.9c-1.1-1.2-1.1-3.1,0.1-4.2
			c4.7-4.5,9.3-9.3,13.6-14.2c1.1-1.2,3-1.4,4.2-0.3s1.4,3,0.3,4.2c-4.4,5-9.1,10-14,14.6C384.8,393.9,384.1,394.1,383.3,394.1z
			 M50,364.3c-0.9,0-1.8-0.4-2.4-1.2c-4-5.4-7.7-11.1-11.2-16.8c-0.9-1.4-0.4-3.3,1-4.1c1.4-0.9,3.3-0.4,4.1,1
			c3.4,5.6,7,11.1,10.9,16.4c1,1.3,0.7,3.2-0.7,4.2C51.2,364.1,50.6,364.3,50,364.3z M409.5,364.1c-0.6,0-1.2-0.2-1.8-0.6
			c-1.3-1-1.6-2.9-0.7-4.2c3.8-5.3,7.5-10.8,10.9-16.4c0.9-1.4,2.7-1.9,4.1-1s1.9,2.7,1,4.1c-3.4,5.8-7.2,11.4-11.1,16.9
			C411.4,363.7,410.5,364.1,409.5,364.1z M29.5,330.2c-1.1,0-2.2-0.6-2.7-1.7c-2.9-6-5.6-12.3-8-18.6c-0.6-1.6,0.2-3.3,1.8-3.9
			s3.3,0.2,3.9,1.8c2.3,6.1,4.9,12.2,7.8,18.1c0.7,1.5,0.1,3.3-1.4,4C30.4,330.1,29.9,330.2,29.5,330.2z M430,330
			c-0.4,0-0.9-0.1-1.3-0.3c-1.5-0.7-2.1-2.5-1.4-4c2.8-5.9,5.4-12,7.7-18.1c0.6-1.6,2.3-2.3,3.9-1.8c1.6,0.6,2.3,2.3,1.8,3.9
			c-2.4,6.3-5,12.5-8,18.6C432.2,329.3,431.1,330,430,330z M15.4,292.9c-1.3,0-2.5-0.9-2.9-2.2c-1.8-6.5-3.3-13.1-4.5-19.7
			c-0.3-1.6,0.8-3.2,2.4-3.5s3.2,0.8,3.5,2.4c1.2,6.4,2.6,12.9,4.4,19.2c0.4,1.6-0.5,3.2-2.1,3.7C16,292.9,15.7,292.9,15.4,292.9z
			 M444,292.7c-0.3,0-0.5,0-0.8-0.1c-1.6-0.4-2.5-2.1-2.1-3.7c1.7-6.3,3.2-12.7,4.4-19.2c0.3-1.6,1.9-2.7,3.5-2.4
			c1.6,0.3,2.7,1.9,2.4,3.5c-1.2,6.6-2.7,13.2-4.5,19.7C446.5,291.8,445.3,292.7,444,292.7z M8.3,253.7c-1.5,0-2.8-1.2-3-2.7
			c-0.6-6.7-0.9-13.5-0.9-20.2c0-1.7,1.3-3,3-3l0,0c1.7,0,3,1.3,3,3c0,6.5,0.3,13.2,0.9,19.7c0.1,1.6-1.1,3.1-2.7,3.3
			C8.5,253.7,8.4,253.7,8.3,253.7z M451.1,253.5c-0.1,0-0.2,0-0.3,0c-1.7-0.1-2.9-1.6-2.7-3.3c0.6-6.5,0.9-13.1,0.9-19.7V230
			c0-1.7,1.3-3,3-3s3,1.3,3,3v0.5c0,6.7-0.3,13.5-0.9,20.2C453.9,252.3,452.6,253.5,451.1,253.5z M8.3,213.9c-0.1,0-0.2,0-0.3,0
			c-1.7-0.1-2.9-1.6-2.7-3.3c0.6-6.7,1.5-13.4,2.7-20c0.3-1.6,1.8-2.7,3.5-2.4c1.6,0.3,2.7,1.9,2.4,3.5c-1.1,6.4-2,13-2.6,19.5
			C11.1,212.7,9.8,213.9,8.3,213.9z M451,213.1c-1.5,0-2.8-1.2-3-2.7c-0.6-6.5-1.5-13.1-2.7-19.5c-0.3-1.6,0.8-3.2,2.4-3.5
			c1.6-0.3,3.2,0.8,3.5,2.4c1.2,6.6,2.1,13.3,2.7,20c0.2,1.6-1.1,3.1-2.7,3.3C451.2,213.1,451.1,213.1,451,213.1z M15.3,174.7
			c-0.3,0-0.5,0-0.8-0.1c-1.6-0.4-2.5-2.1-2.1-3.7c1.8-6.5,3.9-12.9,6.2-19.2c0.6-1.6,2.3-2.3,3.9-1.8c1.6,0.6,2.3,2.3,1.8,3.9
			c-2.3,6.1-4.3,12.4-6,18.7C17.8,173.8,16.6,174.7,15.3,174.7z M443.9,173.9c-1.3,0-2.5-0.9-2.9-2.2c-1.7-6.3-3.8-12.6-6.1-18.7
			c-0.6-1.5,0.2-3.3,1.7-3.9c1.6-0.6,3.3,0.2,3.9,1.7c2.4,6.3,4.5,12.7,6.3,19.2c0.4,1.6-0.5,3.2-2.1,3.7
			C444.4,173.9,444.1,173.9,443.9,173.9z M29.3,137.3c-0.4,0-0.9-0.1-1.3-0.3c-1.5-0.7-2.1-2.5-1.4-4c2.9-6,6.1-12,9.6-17.8
			c0.9-1.4,2.7-1.9,4.1-1c1.4,0.8,1.9,2.7,1,4.1c-3.4,5.6-6.5,11.4-9.3,17.3C31.4,136.7,30.4,137.3,29.3,137.3z M429.8,136.7
			c-1.1,0-2.2-0.6-2.7-1.7c-2.9-5.9-6-11.7-9.4-17.3c-0.9-1.4-0.4-3.3,1-4.1c1.4-0.9,3.3-0.4,4.1,1c3.5,5.8,6.7,11.7,9.6,17.8
			c0.7,1.5,0.1,3.3-1.4,4C430.7,136.6,430.2,136.7,429.8,136.7z M49.7,103.1c-0.6,0-1.2-0.2-1.8-0.6c-1.3-1-1.6-2.8-0.7-4.2
			c3.9-5.4,8.2-10.7,12.6-15.8c1.1-1.2,3-1.4,4.2-0.3c1.2,1.1,1.4,3,0.3,4.2C60,91.3,55.9,96.5,52,101.8
			C51.5,102.7,50.6,103.1,49.7,103.1z M409.3,102.5c-0.9,0-1.8-0.4-2.4-1.2c-3.9-5.3-8-10.4-12.3-15.3c-1.1-1.2-1-3.1,0.3-4.2
			c1.2-1.1,3.1-1,4.2,0.3c4.4,5,8.7,10.4,12.6,15.8c1,1.3,0.7,3.2-0.7,4.2C410.5,102.3,409.9,102.5,409.3,102.5z M75.9,73.1
			c-0.8,0-1.6-0.3-2.2-0.9c-1.1-1.2-1.1-3.1,0.1-4.2c4.8-4.6,10-9.1,15.2-13.3c1.3-1,3.2-0.8,4.2,0.5s0.8,3.2-0.5,4.2
			c-5.1,4.1-10.1,8.4-14.8,13C77.4,72.8,76.6,73.1,75.9,73.1z M383,72.6c-0.7,0-1.5-0.3-2.1-0.8c-4.7-4.5-9.7-8.9-14.8-12.9
			c-1.3-1-1.5-2.9-0.5-4.2s2.9-1.5,4.2-0.5c5.3,4.2,10.4,8.6,15.2,13.3c1.2,1.1,1.2,3,0.1,4.2C384.5,72.3,383.8,72.6,383,72.6z
			 M107,48.2c-1,0-1.9-0.5-2.5-1.3c-0.9-1.4-0.5-3.2,0.8-4.2c5.6-3.7,11.4-7.2,17.3-10.4c1.5-0.8,3.3-0.2,4.1,1.2
			c0.8,1.5,0.2,3.3-1.2,4.1c-5.7,3.1-11.4,6.5-16.9,10.1C108.1,48,107.5,48.2,107,48.2z M351.8,47.8c-0.6,0-1.1-0.2-1.6-0.5
			c-5.5-3.6-11.1-7-16.9-10.1c-1.5-0.8-2-2.6-1.2-4.1s2.6-2,4.1-1.2c5.9,3.2,11.8,6.7,17.4,10.3c1.4,0.9,1.8,2.8,0.9,4.2
			C353.7,47.3,352.8,47.8,351.8,47.8z M142,29.2c-1.2,0-2.3-0.7-2.8-1.8c-0.7-1.5,0-3.3,1.6-3.9c6.2-2.6,12.5-5,18.9-7.1
			c1.6-0.5,3.3,0.3,3.8,1.9s-0.3,3.3-1.9,3.8c-6.2,2-12.4,4.4-18.4,6.9C142.8,29.2,142.4,29.2,142,29.2z M316.7,28.9
			c-0.4,0-0.8-0.1-1.2-0.2c-6-2.6-12.2-4.9-18.4-6.9c-1.6-0.5-2.4-2.2-1.9-3.8s2.2-2.4,3.8-1.9c6.4,2.1,12.8,4.4,18.9,7.1
			c1.5,0.6,2.2,2.4,1.6,3.9C318.9,28.3,317.8,28.9,316.7,28.9z M179.9,16.9c-1.4,0-2.6-0.9-2.9-2.3c-0.4-1.6,0.6-3.2,2.3-3.6
			c6.5-1.5,13.2-2.7,19.9-3.6c1.6-0.2,3.2,0.9,3.4,2.6c0.2,1.6-0.9,3.2-2.6,3.4c-6.5,0.9-13,2.1-19.3,3.5
			C180.3,16.9,180.1,16.9,179.9,16.9z M278.8,16.7c-0.2,0-0.4,0-0.7-0.1c-6.4-1.4-12.9-2.6-19.4-3.5c-1.6-0.2-2.8-1.7-2.6-3.4
			c0.2-1.6,1.7-2.8,3.4-2.6c6.7,0.9,13.4,2.1,19.9,3.5c1.6,0.4,2.6,2,2.3,3.6C281.4,15.8,280.1,16.7,278.8,16.7z M219.3,11.5
			c-1.6,0-2.9-1.3-3-2.9c-0.1-1.7,1.2-3.1,2.9-3.1c6.7-0.3,13.5-0.3,20.2,0c1.7,0.1,2.9,1.5,2.9,3.1c-0.1,1.7-1.5,3-3.1,2.9
			c-6.5-0.3-13.2-0.3-19.7,0C219.4,11.5,219.4,11.5,219.3,11.5z"/>
	</g>
	<g>
		<circle class="st1" cx="229.7" cy="230.5" r="210"/>
	</g>
	<g>
		<path class="st2" d="M166.2,161.7l-38.1-41.2c-2.2-2.4-5.5-3.4-8.7-2.7c-3.2,0.7-5.7,3-6.7,6.1l-16.5,53.6c-1,3.1-0.2,6.4,2,8.8
			c2.2,2.4,5.4,3.4,8.6,2.7l54.7-12.4c3.2-0.7,5.7-3,6.7-6.1C169.2,167.4,168.4,164.1,166.2,161.7z M161.9,168.5
			c-0.1,0.4-0.5,1.3-1.7,1.5l-54.7,12.4c-1.2,0.3-1.9-0.4-2.2-0.7c-0.4-0.3-1-1.1-0.6-2.2l16.7-53.6c0.4-1.1,1.3-1.5,1.7-1.5
			c0.4,0,1.4-0.2,2.2,0.7l38.1,41.2C162.2,167.2,162,168.1,161.9,168.5z"/>
		
			<rect x="123" y="136.4" transform="matrix(0.9755 -0.2202 0.2202 0.9755 -29.5915 31.4802)" class="st2" width="6.8" height="24.1"/>
		
			<rect x="127.5" y="163.8" transform="matrix(-0.2202 -0.9755 0.9755 -0.2202 -3.6213 331.5191)" class="st2" width="6.4" height="6.8"/>
	</g>
	<path class="st2" d="M187.5,268.8c0-0.3,0-0.6-0.1-0.9c-0.1-0.3-0.2-0.5-0.3-0.8c-2-8.5-6.7-15.8-12.9-21.2
		c-0.1-0.1-0.1-0.2-0.2-0.3c-0.2-0.2-0.5-0.4-0.8-0.6c-8.8-7.1-20.6-10.4-32.5-8.1c-0.3,0-0.6,0-0.9,0.1c-0.3,0.1-0.5,0.2-0.8,0.3
		c-21.1,4.9-34.5,26-29.9,47.2c4.6,21.5,25.9,35.3,47.4,30.7c11.8-2.5,21.2-10,26.6-19.8c0.2-0.2,0.3-0.4,0.4-0.6
		c0-0.1,0.1-0.2,0.1-0.3C187.7,286.9,189.2,277.9,187.5,268.8z M152.3,278.9l29.1-6.2c0.6,5.7-0.2,11.3-2.3,16.4
		c-4.8-1.8-14.6-4.7-25.3-3.2L152.3,278.9z M179.9,266l-29.1,6.2l-1.5-7.2c10.2-3,18.4-9.2,22.3-12.5
		C175.3,256.2,178.2,260.8,179.9,266z M115.2,279.9c-0.6-5.9,0.4-11.6,2.6-16.8c4.8,1.8,14.5,4.7,25,3.4l1.5,7.2L115.2,279.9z
		 M166.3,248.4c-3.7,3-10.4,7.8-18.4,10.2l-3.3-15.3C152.5,242.4,160.1,244.3,166.3,248.4z M138.1,244.7l3.3,15.3
		c-8.2,0.8-16-1.3-20.2-2.8C125.2,251.4,131,246.9,138.1,244.7z M116.5,286.5l29.1-6.2l1.5,7c-10.5,3.2-18.7,9.7-22.3,12.8
		C121.1,296.4,118.2,291.8,116.5,286.5z M130.2,304.3c3.4-2.9,10.2-7.9,18.4-10.5l3.3,15.7C144.1,310.3,136.4,308.3,130.2,304.3z
		 M158.5,308l-3.4-15.7c8.5-1,16.4,1.1,20.7,2.7C171.8,301,165.8,305.7,158.5,308z"/>
	<g>
		<path class="st2" d="M339.1,216.1c-12.1,0-22,9.9-22,22c0,12.1,9.9,22,22,22c12.2,0,22-9.9,22-22
			C361.1,226,351.2,216.1,339.1,216.1z M339.1,252.7c-8.1,0-14.6-6.6-14.6-14.6c0-8.1,6.6-14.6,14.6-14.6c8.1,0,14.6,6.6,14.6,14.6
			C353.7,246.2,347.1,252.7,339.1,252.7z"/>
		<path class="st2" d="M384,249.3V227l-10.3-1.6c-0.4-0.9-0.7-1.7-1.1-2.6l6.1-8.4l-15.8-15.8l-8.4,6.1c-0.8-0.4-1.7-0.8-2.6-1.1
			l-1.6-10.3H328l-1.6,10.3c-0.9,0.3-1.7,0.7-2.6,1.1l-8.4-6.1l-15.8,15.8l6.1,8.4c-0.4,0.8-0.8,1.7-1.1,2.6l-10.3,1.6v22.3
			l10.3,1.6c0.3,0.9,0.7,1.7,1.1,2.6l-6.1,8.4l15.8,15.8l8.4-6.1c0.8,0.4,1.7,0.8,2.6,1.1L328,283h22.3l1.7-10.3
			c0.9-0.4,1.7-0.7,2.6-1.1l8.4,6.1l15.7-15.8l-6.1-8.4c0.4-0.8,0.8-1.7,1.1-2.6L384,249.3z M369,261.1l-6.8,6.8l-7-5.1l-2.1,1.1
			c-1.7,0.9-3.6,1.7-5.6,2.3l-2.2,0.7l-1.3,8.6h-9.7l-1.3-8.6l-2.2-0.7c-2-0.6-3.9-1.4-5.6-2.3l-2.1-1.1l-7,5.1l-6.8-6.8l5.1-7
			l-1.1-2.1c-0.9-1.7-1.7-3.6-2.3-5.6l-0.7-2.2l-8.6-1.3v-9.7l8.6-1.3l0.7-2.2c0.6-2,1.4-3.9,2.3-5.6l1.1-2.1l-5.1-7l6.8-6.8l7,5.1
			l2.1-1.1c1.7-0.9,3.6-1.7,5.6-2.3l2.2-0.7l1.3-8.6h9.7l1.3,8.6l2.2,0.7c2,0.6,3.9,1.4,5.6,2.3l2.1,1.1l7-5.1l6.8,6.8l-5.1,7
			l1.1,2.1c0.9,1.7,1.7,3.6,2.3,5.6l0.7,2.2l8.6,1.3v9.7l-8.6,1.3l-0.7,2.2c-0.6,2-1.4,3.9-2.3,5.6l-1.1,2.1L369,261.1z"/>
	</g>
	<g>
		<polygon class="st3" points="134.7,179 161,291 229.9,326.5 229.9,134.7 		"/>
	</g>
	<g>
		<polygon class="st4" points="325.2,179 229.9,134.7 229.9,326.5 298.9,291 		"/>
	</g>
	<g>
		<polygon class="st5" points="229.9,143.5 143.9,183.5 167.9,285.5 229.9,317.5 260.4,226.6 		"/>
	</g>
	<g>
		<polygon class="st0" points="229.9,143.5 315.9,183.5 291.9,285.5 229.9,317.5 		"/>
	</g>
	<g>
		<g>
			<circle class="st6" cx="368.7" cy="98.8" r="45.5"/>
		</g>
		<path class="st5" d="M385.2,102.7l-4.4-0.9c0.1-1.2,0.1-2.3,0-3.4c2.5-1.4,4.2-2.8,4.3-2.9c0.6-0.5,0.7-1.5,0.2-2.1
			c-0.5-0.6-1.5-0.7-2.1-0.2c0,0-1.2,1-3.1,2.2c-0.7-2.3-2-4.2-3.7-5.8c2.7-2.7,6.5-1.8,6.7-1.7c0.8,0.3,1.6-0.2,1.8-1
			c0.3-0.8-0.2-1.6-1-1.8c-0.3-0.1-6-1.6-9.9,2.8c-0.9-0.5-1.8-0.8-2.9-1c-1.1-0.2-2.1-0.3-3.2-0.2c-2-5.6-7.7-6.4-8-6.4
			c-0.8-0.1-1.6,0.5-1.7,1.3c-0.1,0.8,0.5,1.6,1.3,1.7c0.1,0,3.9,0.6,5.5,4.1c-2.1,0.8-4.1,2.2-5.7,4c-1.5-1.9-2.4-3.5-2.4-3.5
			c-0.4-0.8-1.3-1-2-0.6c-0.8,0.4-1,1.3-0.6,2c0.1,0.2,1.3,2.3,3.3,4.7c-0.5,0.9-0.9,1.9-1.2,2.9l-4.5-0.9c-0.8-0.1-1.6,0.4-1.8,1.2
			c-0.1,0.8,0.4,1.6,1.2,1.8l4.5,0.9c-0.2,1.6-0.1,3.1,0.2,4.7l-4.7,1.7c-0.8,0.3-1.2,1.1-0.9,1.9c0.2,0.6,0.8,1,1.4,1
			c0.2,0,0.4-0.1,0.5-0.1l4.6-1.7c0.2,0.5,0.4,1,0.7,1.5c1.7,2.9,4.3,5,7.4,5.8c0.1,0.1,0.3,0.2,0.5,0.2c0.1,0,0.2,0,0.3,0
			c0.1,0,0.1,0,0.2,0c0.6,0.1,1.1,0.1,1.7,0.1c3.2,0,6.2-1.4,8.6-3.7l3.6,3.3c0.3,0.3,0.6,0.4,1,0.4c0.4,0,0.8-0.2,1.1-0.5
			c0.5-0.6,0.5-1.5-0.1-2.1l-3.7-3.3c0.9-1.3,1.6-2.7,2.1-4.2l4.4,0.9c0.1,0,0.2,0,0.3,0c0.7,0,1.3-0.5,1.5-1.2
			C386.5,103.7,386,102.9,385.2,102.7z M368.9,89.7c0.5,0,1,0,1.6,0.1c1.1,0.2,2,0.6,2.9,1.2c0,0,0.1,0.1,0.1,0.1
			c0.1,0.1,0.2,0.1,0.3,0.2c1.8,1.3,3,3.3,3.7,5.6c-2.6,1.3-5.6,2.2-8.4,1.8c-0.1,0-0.2-0.1-0.3-0.1c-0.1,0-0.2,0-0.3,0
			c-2.7-0.6-5.1-2.6-7.1-4.7C363.2,91.3,366,89.7,368.9,89.7z M360.2,107.4c-1.4-2.4-1.8-5.4-1.2-8.4c0.2-0.9,0.5-1.8,0.8-2.6
			c1.9,1.9,4.2,3.7,6.8,4.6l-2.1,10.4C362.7,110.7,361.2,109.3,360.2,107.4z M367.5,112l2.1-10.5c0.2,0,0.5,0,0.8,0
			c2.6,0,5.2-0.8,7.4-1.8c0,0.8,0,1.7-0.2,2.5c-0.1,0.1-0.1,0.2-0.1,0.3c0,0.1,0,0.2,0,0.3c-0.4,1.9-1.3,3.7-2.4,5.1
			c0,0-0.1,0.1-0.1,0.1c-0.1,0.1-0.1,0.2-0.1,0.3C372.9,110.7,370.3,112.1,367.5,112z"/>
	</g>
	<g>
		<g>
			<circle class="st7" cx="98.7" cy="367.1" r="41.6"/>
		</g>
		<g>
			<path class="st5" d="M117.5,363c-0.4-0.4-10.5-10.9-21-9.2c-10.5,1.8-16.6,15-16.9,15.6l-0.5,1l0.8,0.8c0.4,0.4,10.5,10.9,21,9.2
				c10.5-1.7,16.6-15,16.9-15.6l0.5-1L117.5,363z M100.3,377.1c-7.2,1.2-14.7-5.1-17.2-7.4c1.6-3,6.7-11.4,13.9-12.6
				s14.7,5.1,17.2,7.4C112.6,367.5,107.5,375.9,100.3,377.1z"/>
			<path class="st5" d="M91.5,368.3c0.6,4,4.4,6.7,8.4,6c4-0.6,6.6-4.4,6-8.4c-0.6-4-4.4-6.7-8.4-6
				C93.5,360.5,90.9,364.3,91.5,368.3z M102.6,366.5c0.3,2.2-1.1,4.2-3.3,4.6c-2.2,0.3-4.2-1.1-4.6-3.3c-0.3-2.2,1.1-4.2,3.3-4.6
				C100.2,362.8,102.3,364.3,102.6,366.5z"/>
		</g>
	</g>
	<g>
		<path class="st8" d="M216.4,219.5c-0.5,0.5-0.5,1.4,0,2l12.5,12.5c0.3,0.3,0.6,0.4,1,0.4v-27.9c-0.4,0-0.7,0.1-1,0.4L216.4,219.5z
			"/>
	</g>
	<g>
		<path class="st3" d="M172.9,229.7c0,31.5,25.5,57.1,57.1,57.1l6.8-55.3l-6.8-58.8C198.4,172.6,172.9,198.2,172.9,229.7z"/>
	</g>
	<g>
		<path class="st4" d="M287,229.7c0-31.5-25.5-57.1-57.1-57.1l0,0v114.1l0,0C261.5,286.8,287,261.2,287,229.7z"/>
	</g>
	<g>
		<path class="st5" d="M229,234l-12.6-12.5c-0.5-0.5-0.5-1.4,0-2l12.5-12.5c0.3-0.3,0.6-0.4,1-0.4v-7.8c-0.4,0-0.7,0.1-1,0.4
			l-20.3,20.3c-0.5,0.5-0.5,1.4,0,2l16.4,16.4c0.5,0.5,0.5,1.4,0,2l-12.5,12.5c-0.5,0.5-1.4,0.5-2,0l-16.4-16.5
			c-0.5-0.5-1.4-0.5-2,0l-1.9,1.9c-0.5,0.5-0.5,1.4,0,2l20.4,20.3c0.5,0.5,1.4,0.5,2,0l16.4-16.4c0.3-0.3,0.6-0.4,1-0.4v-9
			C229.6,234.4,229.2,234.3,229,234z"/>
	</g>
	<g>
		<path class="st0" d="M230.9,243.8l16.4,16.4c0.5,0.5,1.4,0.5,2,0l20.4-20.3c0.5-0.5,0.5-1.4,0-2l-1.9-1.9c-0.5-0.5-1.4-0.5-2,0
			l-16.4,16.5c-0.5,0.5-1.4,0.5-2,0L234.9,240c-0.5-0.5-0.5-1.4,0-2l16.4-16.4c0.5-0.5,0.5-1.4,0-2l-20.4-20.4
			c-0.3-0.3-0.6-0.4-1-0.4v7.8c0.4,0,0.7,0.1,1,0.4l12.5,12.5c0.5,0.5,0.5,1.4,0,2L230.9,234c-0.3,0.3-0.6,0.4-1,0.4v9
			C230.3,243.4,230.6,243.5,230.9,243.8z"/>
	</g>
	<path class="st7" d="M342.7,322c-8.8-3-18.4,1.8-21.4,10.6c-2.1,6.3-0.4,13.2,4.4,17.7l-2.3,6.7c-1.3,3.8,1.8,8,4.4,8.9
		c2.6,0.9,7.6-0.6,8.9-4.6l2.2-6.5c6.6-0.6,12.3-5,14.4-11.4C356.3,334.6,351.5,325,342.7,322z M334.7,354.8l-0.9,2.6l-5.7-1.9
		l0.9-2.6L334.7,354.8z M329.1,362c-0.8-0.2-2.4-2.4-1.9-3.8l0.1-0.3l5.7,1.9l-0.1,0.2C332.4,361.5,329.9,362.3,329.1,362z
		 M349.6,342.1c-1.6,5-6.2,8.4-11.4,8.8c0,0-0.1,0-0.1-0.1c-1-0.3-2.1,0.3-2.5,1.3l0,0.1l-1.6-0.5l2.3-6.7l4.7-2.8
		c0.7-0.3,0.9-1.2,0.5-1.8c-0.3-0.7-1.2-0.9-1.8-0.5l-3.9,2.3l-2-4.3c-0.3-0.6-1.1-0.9-1.8-0.6c-0.6,0.3-0.9,1.1-0.6,1.8l2.4,5.1
		l-2.3,6.7l-1.6-0.5c0.3-0.8,0.1-1.7-0.6-2.2c-4.2-3.4-5.9-9.1-4.2-14.3c2.3-6.8,9.7-10.4,16.4-8.1
		C348.3,328,351.9,335.4,349.6,342.1z"/>
	<g>
		<path class="st3" d="M101.1,242.2l1.4-4.9c0.6-2.2-0.7-4.5-2.9-5.1l-1.7-0.5c1.5-3.2,4.2-4.1,8.3-2.9c1,0.3,2-0.3,2.3-1.3
			s-0.3-2-1.3-2.3c-6.2-1.7-10.9,0.2-13.1,5.5l-1.8-0.5c-1-0.3-2.1-0.1-3.1,0.4c-1,0.6-1.7,1.4-2,2.5l-1.3,4.7
			c-8.6,0.8-16.2,6.8-18.7,15.6c-3.2,11.4,3.5,23.3,14.9,26.5c1.9,0.5,3.9,0.8,5.8,0.8c9.4,0,18.1-6.2,20.7-15.7
			C111,256.4,107.8,247.4,101.1,242.2z M91,233.9c0,0,0.1,0,0.2,0l7.3,2c0.1,0,0.2,0.2,0.2,0.4l-1.1,3.7c-1.2-0.6-2.5-1.1-3.9-1.5
			c-1.3-0.4-2.6-0.6-4-0.7l1.1-3.7C90.9,234,90.9,233.9,91,233.9z M104.9,263.9c-2.6,9.4-12.4,14.9-21.8,12.3
			c-9.4-2.6-14.9-12.4-12.3-21.8c2.2-7.8,9.4-12.9,17.1-12.9c1.6,0,3.2,0.2,4.7,0.6C102,244.7,107.5,254.5,104.9,263.9z"/>
		<path class="st3" d="M91.4,245.2c-1-0.3-2,0.3-2.3,1.3s0.3,2,1.3,2.3c6.1,1.7,9.7,8.1,8,14.3c-0.3,1,0.3,2,1.3,2.3
			c0.2,0.1,0.3,0.1,0.5,0.1c0.9,0,1.6-0.6,1.9-1.3C104.4,256,99.6,247.5,91.4,245.2z"/>
	</g>
	<path class="st9" d="M230.7,357.1c-13.6,0-24.6,11-24.6,24.6c0,13.6,11,24.6,24.6,24.6c13.6,0,24.6-11.1,24.6-24.6
		C255.3,368.1,244.3,357.1,230.7,357.1z M243.9,365.7l-5.4,5.4c-2.2-1.6-4.8-2.6-7.7-2.6c-2.9,0-5.5,0.9-7.7,2.5l-5.4-5.4
		c3.6-2.9,8.1-4.7,13.1-4.7C235.7,361,240.3,362.8,243.9,365.7z M221.7,381.7c0-5,4-9,9-9s9,4,9,9s-4,9-9,9S221.7,386.7,221.7,381.7
		z M210,381.7c0-5,1.8-9.6,4.8-13.2l5.4,5.4c-1.6,2.2-2.5,4.8-2.5,7.7c0,2.9,1,5.5,2.5,7.7l-5.5,5.5
		C211.8,391.2,210,386.7,210,381.7z M217.5,397.6l5.5-5.5c2.2,1.6,4.8,2.5,7.7,2.5c2.9,0,5.5-0.9,7.7-2.5l5.5,5.5
		c-3.6,3-8.2,4.8-13.2,4.8S221.1,400.6,217.5,397.6z M246.7,394.8l-5.5-5.5c1.6-2.2,2.5-4.8,2.5-7.7c0-2.8-0.9-5.5-2.5-7.6l5.4-5.4
		c3,3.6,4.7,8.2,4.7,13.2C251.4,386.7,249.6,391.2,246.7,394.8z"/>
	<g>
		<g>
			<g>
				<rect x="170.8" y="66.7" class="st6" width="2.4" height="17.6"/>
			</g>
		</g>
		<g>
			<circle class="st6" cx="172" cy="66.7" r="2.7"/>
		</g>
		<g>
			<path class="st6" d="M181.9,82.3h-33.2c-4.1,0-7.4,3.3-7.4,7.4v1.6c0,4.1,3.3,7.4,7.4,7.4h33.2c4.1,0,7.4-3.3,7.4-7.4v-1.6
				C189.2,85.7,185.9,82.3,181.9,82.3z M151.7,90.2H148c-0.7,0-1.2-0.5-1.2-1.2s0.5-1.2,1.2-1.2h3.7c0.7,0,1.2,0.5,1.2,1.2
				S152.3,90.2,151.7,90.2z M159.7,90.2H156c-0.7,0-1.2-0.5-1.2-1.2s0.5-1.2,1.2-1.2h3.7c0.7,0,1.2,0.5,1.2,1.2
				S160.3,90.2,159.7,90.2z M167.7,90.2H164c-0.7,0-1.2-0.5-1.2-1.2s0.5-1.2,1.2-1.2h3.7c0.7,0,1.2,0.5,1.2,1.2
				S168.3,90.2,167.7,90.2z"/>
		</g>
		<g>
			<g>
				<g>
					<g>
						<path class="st7" d="M177,71.3c-0.3,0-0.6-0.1-0.9-0.4c-0.5-0.5-0.5-1.2,0-1.7c0.7-0.7,1-1.6,1-2.5s-0.4-1.8-1-2.5
							c-0.5-0.5-0.5-1.2,0-1.7s1.2-0.5,1.7,0c1.1,1.1,1.7,2.6,1.7,4.2c0,1.6-0.6,3.1-1.7,4.2C177.6,71.2,177.3,71.3,177,71.3z"/>
					</g>
				</g>
				<g>
					<g>
						<path class="st7" d="M180.8,75.1c-0.3,0-0.6-0.1-0.9-0.4c-0.5-0.5-0.5-1.2,0-1.7c3.5-3.5,3.5-9.1,0-12.6
							c-0.5-0.5-0.5-1.2,0-1.7s1.2-0.5,1.7,0c4.4,4.4,4.4,11.6,0,16C181.4,75,181.1,75.1,180.8,75.1z"/>
					</g>
				</g>
			</g>
			<g>
				<g>
					<g>
						<path class="st7" d="M167,71.3c-0.3,0-0.6-0.1-0.9-0.4c-1.1-1.1-1.7-2.6-1.7-4.2c0-1.6,0.6-3.1,1.7-4.2c0.5-0.5,1.2-0.5,1.7,0
							s0.5,1.2,0,1.7c-0.7,0.7-1,1.6-1,2.5s0.4,1.8,1,2.5c0.5,0.5,0.5,1.2,0,1.7C167.7,71.2,167.4,71.3,167,71.3z"/>
					</g>
				</g>
				<g>
					<g>
						<path class="st7" d="M163.2,75.1c-0.3,0-0.6-0.1-0.9-0.4c-4.4-4.4-4.4-11.6,0-16c0.5-0.5,1.2-0.5,1.7,0s0.5,1.2,0,1.7
							c-3.5,3.5-3.5,9.1,0,12.6c0.5,0.5,0.5,1.2,0,1.7C163.9,75,163.6,75.1,163.2,75.1z"/>
					</g>
				</g>
			</g>
		</g>
	</g>
	<g>
		<g>
			<path class="st5" d="M105.2,175.6l-42.6-5.9c-4-0.6-6.8-4.3-6.3-8.3l3.3-23.7c0.6-4,4.3-6.8,8.3-6.3l42.6,5.9
				c4,0.6,6.8,4.3,6.3,8.3l-3.3,23.7C112.9,173.3,109.2,176.2,105.2,175.6z"/>
		</g>
		<g>
			<polygon class="st10" points="52.4,173.4 59.4,167.9 108.4,174.6 113.3,181.7 110.5,183.7 55.2,176.1 			"/>
		</g>
		<g>
			<path class="st2" d="M104.5,172.7L64,167.1c-3.2-0.4-5.4-3.4-5-6.5l2.9-21.3c0.4-3.2,3.4-5.4,6.5-5l40.5,5.6
				c3.2,0.4,5.4,3.4,5,6.5l-2.9,21.3C110.6,170.9,107.7,173.2,104.5,172.7z"/>
		</g>
		<g>
			<path class="st0" d="M111.9,186.4l-59.4-8.2c-0.9-0.1-1.5-0.9-1.4-1.8l0.2-1.7c0.1-0.9,0.9-1.5,1.8-1.4l59.4,8.2
				c0.9,0.1,1.5,0.9,1.4,1.8l-0.2,1.7C113.6,185.9,112.8,186.5,111.9,186.4z"/>
		</g>
		<path class="st11" d="M92.7,149.3c-0.2,0-0.3,0-0.5,0c-0.6-3.3-3.4-5.8-6.9-5.8c-3.7,0-6.7,2.8-7,6.4c-0.1,0-0.2,0-0.3,0
			c-3.6,0-6.5,2.9-6.5,6.5c0,3.5,2.8,6.3,6.2,6.5l13.3,1.8c0.5,0.1,1.1,0.2,1.7,0.2c4.3,0,7.8-3.5,7.8-7.8
			C100.5,152.8,97,149.3,92.7,149.3z"/>
		<path class="st10" d="M87.8,153.2c-0.9-0.1-1.7,0.1-2.4,0.6c-0.6,0.4-1,1-1.2,1.7l-13.6-1.9l-0.1,0.9l13.6,1.9
			c0,1.6,1.2,3,2.8,3.2c0.1,0,0.3,0,0.4,0c1.6,0,3-1.2,3.3-2.7C90.8,155.1,89.6,153.4,87.8,153.2z M89.6,156.6
			c-0.2,1.3-1.3,2.2-2.6,2c-1.2-0.2-2-1.1-2-2.2l0.1-0.6c0.1-0.5,0.4-0.9,0.8-1.2c0.4-0.3,0.9-0.5,1.4-0.5c0.1,0,0.2,0.1,0.3,0
			C88.9,154.2,89.8,155.3,89.6,156.6z"/>
	</g>
	<g>
		<g>
			<g>
				<g>
					<path class="st9" d="M278.3,109.7l-29.5,6.3c-2.5,0.5-5-1.1-5.6-3.6L238.8,92c-0.5-2.5,1.1-5,3.6-5.6l29.5-6.3
						c2.5-0.5,5,1.1,5.6,3.6l4.4,20.4C282.4,106.7,280.8,109.2,278.3,109.7z M243.1,89.8c-0.7,0.1-1.2,0.9-1,1.6l4.4,20.4
						c0.1,0.7,0.9,1.2,1.6,1l29.5-6.3c0.7-0.1,1.2-0.9,1-1.6l-4.4-20.4c-0.1-0.7-0.9-1.2-1.6-1L243.1,89.8z"/>
				</g>
			</g>
			<g>
				<g>
					<path class="st9" d="M268.3,83.2c-0.9,0.2-1.8-0.4-2-1.3l-1.6-7.4c-0.9-4.2-5-6.9-9.2-6l-2.8,0.6c-4.2,0.9-6.9,5-6,9.2l1.6,7.4
						c0.2,0.9-0.4,1.8-1.3,2c-0.9,0.2-1.8-0.4-2-1.3l-1.6-7.4c-1.3-6,2.5-11.9,8.5-13.2l2.8-0.6c6-1.3,11.9,2.5,13.2,8.5l1.6,7.4
						C269.8,82.1,269.2,83,268.3,83.2z"/>
				</g>
			</g>
		</g>
		<g>
			<path class="st12" d="M261.8,94.6c-0.2-1.2-1.4-2-2.6-1.7c-1.2,0.2-2,1.4-1.7,2.6c0.1,0.7,0.6,1.3,1.3,1.6l0.3,6.3l2.2-0.4
				l2.2-0.4l-2.1-5.9C261.7,96,261.9,95.3,261.8,94.6z"/>
		</g>
	</g>
	<g>
		<g>
			<path class="st5" d="M381.7,267.8c-0.2,0-0.3,0-0.5-0.1l-8.1-1.6c-1.6-0.3-2.7-1.9-2.3-3.5l0.6-3.2c0.2-0.9,0-1.9-0.6-2.7
				c-0.6-0.8-1.4-1.2-2.4-1.3c-1.7-0.2-3.3,1.1-3.7,2.9l-0.6,3c-0.3,1.6-1.9,2.7-3.5,2.3l-8.1-1.6c-0.7-0.1-1.3-0.5-1.7-1.2
				c-0.4-0.7-0.6-1.3-0.4-2l1.3-6.7l-3.2-0.6c-3.4-0.7-5.7-4-5-7.4c0.7-3.4,4-5.7,7.4-5l3.2,0.6l1.3-6.8c0.1-0.7,0.5-1.3,1.2-1.7
				c0.6-0.4,1.3-0.6,2-0.4l8.1,1.6c0.8,0.2,1.5,0.6,1.9,1.3c0.4,0.7,0.6,1.4,0.4,2.2l-0.6,3.2c-0.2,0.9,0,1.9,0.6,2.7
				c0.6,0.8,1.4,1.2,2.4,1.3c1.7,0.2,3.3-1.1,3.7-2.9l0.6-3c0.2-0.8,0.6-1.5,1.3-1.9c0.7-0.4,1.5-0.6,2.2-0.5l8.1,1.6
				c0.7,0.1,1.3,0.5,1.7,1.2c0.4,0.6,0.6,1.3,0.4,2l-1.3,6.8l3.2,0.6c1.7,0.3,3.1,1.3,4,2.7c0.9,1.4,1.3,3.1,1,4.7
				c-0.3,1.7-1.3,3.1-2.7,4c-1.4,0.9-3.1,1.3-4.7,1l-3.2-0.6l-1.3,6.7C384.1,266.9,383,267.8,381.7,267.8z M368,252.4
				c0.2,0,0.4,0,0.6,0c1.8,0.2,3.4,1.1,4.5,2.5s1.5,3.3,1.1,5l-0.6,3.2l7.9,1.6l1.5-7.5c0.2-1,1.2-1.7,2.2-1.5l0,0l4.3,0.8
				c0.9,0.2,1.8,0,2.5-0.5c0.8-0.5,1.3-1.3,1.4-2.1c0.2-0.9,0-1.8-0.5-2.5s-1.3-1.3-2.1-1.4l-4.3-0.9c-1-0.2-1.6-1.2-1.4-2.1
				l1.5-7.7l-7.9-1.5l-0.6,3c-0.6,3.3-3.6,5.6-6.8,5.3c-1.8-0.2-3.4-1.1-4.5-2.5c-1.1-1.4-1.5-3.3-1.1-5l0.6-3.2l-7.9-1.6l-1.5,7.7
				c-0.1,0.5-0.4,0.9-0.8,1.2c-0.4,0.3-0.9,0.4-1.4,0.3l-4.3-0.8c-1.8-0.4-3.6,0.8-4,2.7c-0.4,1.8,0.8,3.6,2.7,4l4.3,0.8
				c0.5,0.1,0.9,0.4,1.2,0.8c0.3,0.4,0.4,0.9,0.3,1.4l-1.5,7.5l7.9,1.5l0.6-3C362.4,254.7,365.1,252.4,368,252.4z"/>
		</g>
	</g>
	<g>
		<path class="st2" d="M191,372.6h-6.7c-0.8,0-1.5-0.7-1.5-1.5c0-0.8,0.7-1.5,1.5-1.5h3.7v-1.3c0-0.8,0.7-1.5,1.5-1.5
			s1.5,0.7,1.5,1.5V372.6z M174.3,372.6h-8c-0.8,0-1.5-0.7-1.5-1.5c0-0.8,0.7-1.5,1.5-1.5h8c0.8,0,1.5,0.7,1.5,1.5
			C175.8,371.9,175.1,372.6,174.3,372.6z M156.3,372.6h-7c-0.8,0-1.5-0.7-1.5-1.5c0-0.8,0.7-1.5,1.5-1.5h7c0.8,0,1.5,0.7,1.5,1.5
			C157.8,371.9,157.1,372.6,156.3,372.6z M189.5,359.8c-0.8,0-1.5-0.7-1.5-1.5v-8c0-0.8,0.7-1.5,1.5-1.5s1.5,0.7,1.5,1.5v8
			C191,359.1,190.3,359.8,189.5,359.8z M189.5,341.8c-0.8,0-1.5-0.7-1.5-1.5v-8c0-0.8,0.7-1.5,1.5-1.5s1.5,0.7,1.5,1.5v8
			C191,341.1,190.3,341.8,189.5,341.8z M189.5,323.8c-0.8,0-1.5-0.7-1.5-1.5v-8c0-0.8,0.7-1.5,1.5-1.5s1.5,0.7,1.5,1.5v8
			C191,323.1,190.3,323.8,189.5,323.8z"/>
	</g>
	<g>
		<path class="st2" d="M290,152c-0.8,0-1.5-0.7-1.5-1.5v-8c0-0.8,0.7-1.5,1.5-1.5s1.5,0.7,1.5,1.5v8C291.5,151.4,290.8,152,290,152z
			 M290,134c-0.8,0-1.5-0.7-1.5-1.5v-8c0-0.8,0.7-1.5,1.5-1.5s1.5,0.7,1.5,1.5v8C291.5,133.4,290.8,134,290,134z M290,116
			c-0.8,0-1.5-0.7-1.5-1.5v-8c0-0.8,0.7-1.5,1.5-1.5s1.5,0.7,1.5,1.5v8C291.5,115.4,290.8,116,290,116z M290,98
			c-0.8,0-1.5-0.7-1.5-1.5v-3.7h7.3c0.8,0,1.5,0.7,1.5,1.5s-0.7,1.5-1.5,1.5h-4.3v0.7C291.5,97.4,290.8,98,290,98z M313.8,95.8h-8
			c-0.8,0-1.5-0.7-1.5-1.5s0.7-1.5,1.5-1.5h8c0.8,0,1.5,0.7,1.5,1.5S314.6,95.8,313.8,95.8z"/>
	</g>
	<g>
		<path class="st2" d="M130.8,216.8h-8c-0.8,0-1.5-0.7-1.5-1.5s0.7-1.5,1.5-1.5h8c0.8,0,1.5,0.7,1.5,1.5S131.6,216.8,130.8,216.8z
			 M112.8,216.8h-8c-0.8,0-1.5-0.7-1.5-1.5s0.7-1.5,1.5-1.5h8c0.8,0,1.5,0.7,1.5,1.5S113.6,216.8,112.8,216.8z M94.8,216.8h-8
			c-0.8,0-1.5-0.7-1.5-1.5s0.7-1.5,1.5-1.5h8c0.8,0,1.5,0.7,1.5,1.5S95.6,216.8,94.8,216.8z M76.9,216.7c-0.8,0-1.5-0.7-1.5-1.5v-8
			c0-0.8,0.7-1.5,1.5-1.5s1.5,0.7,1.5,1.5v8C78.4,216.1,77.7,216.7,76.9,216.7z M76.9,198.7c-0.8,0-1.5-0.7-1.5-1.5v-8
			c0-0.8,0.7-1.5,1.5-1.5s1.5,0.7,1.5,1.5v8C78.4,198.1,77.7,198.7,76.9,198.7z"/>
	</g>
	<g>
		<path class="st2" d="M213,135c-0.8,0-1.5-0.7-1.5-1.5v-8c0-0.8,0.7-1.5,1.5-1.5s1.5,0.7,1.5,1.5v8C214.5,134.3,213.8,135,213,135z
			 M213,117c-0.8,0-1.5-0.7-1.5-1.5v-8c0-0.8,0.7-1.5,1.5-1.5s1.5,0.7,1.5,1.5v8C214.5,116.3,213.8,117,213,117z M213,99
			c-0.8,0-1.5-0.7-1.5-1.5v-5.6c-0.6-0.2-1-0.8-1-1.4c0-0.8,0.7-1.5,1.5-1.5h2.5v8.5C214.5,98.3,213.8,99,213,99z M202,92h-8
			c-0.8,0-1.5-0.7-1.5-1.5s0.7-1.5,1.5-1.5h8c0.8,0,1.5,0.7,1.5,1.5S202.8,92,202,92z"/>
	</g>
	<g>
		<path class="st2" d="M315.9,349.2h-7.3c-0.8,0-1.5-0.7-1.5-1.5c0-0.8,0.7-1.5,1.5-1.5h7.3c0.8,0,1.5,0.7,1.5,1.5
			C317.4,348.5,316.8,349.2,315.9,349.2z M298.7,349.2h-8c-0.8,0-1.5-0.7-1.5-1.5c0-0.8,0.7-1.5,1.5-1.5h8c0.8,0,1.5,0.7,1.5,1.5
			C300.2,348.5,299.5,349.2,298.7,349.2z M280.7,349.2h-8c-0.8,0-1.5-0.7-1.5-1.5c0-0.8,0.7-1.5,1.5-1.5h8c0.8,0,1.5,0.7,1.5,1.5
			C282.2,348.5,281.5,349.2,280.7,349.2z M270.1,341.8c-0.8,0-1.5-0.7-1.5-1.5v-8c0-0.8,0.7-1.5,1.5-1.5s1.5,0.7,1.5,1.5v8
			C271.6,341.1,270.9,341.8,270.1,341.8z M270.1,323.8c-0.8,0-1.5-0.7-1.5-1.5v-8c0-0.8,0.7-1.5,1.5-1.5s1.5,0.7,1.5,1.5v8
			C271.6,323.1,270.9,323.8,270.1,323.8z"/>
	</g>
	<g>
		<path class="st2" d="M213.7,354c-0.8,0-1.5-0.7-1.5-1.5v-8c0-0.8,0.7-1.5,1.5-1.5s1.5,0.7,1.5,1.5v8
			C215.2,353.4,214.5,354,213.7,354z M213.7,336c-0.8,0-1.5-0.7-1.5-1.5v-8c0-0.8,0.7-1.5,1.5-1.5s1.5,0.7,1.5,1.5v8
			C215.2,335.4,214.5,336,213.7,336z"/>
	</g>
	<g>
		<path class="st3" d="M387.6,319.3c-1.7-0.8-3.7-1-5.6-0.3c-0.8,0.3-1.2,1.1-0.9,1.9c0.2,0.3,0.5,0.6,0.8,0.8
			c0.3,0.2,0.7,0.2,1.1,0.1c1.2-0.4,2.3-0.3,3.4,0.2c1,0.5,1.8,1.4,2.2,2.5c0.3,0.8,1.1,1.2,1.9,0.9c0.8-0.3,1.2-1.1,0.9-1.9
			C390.7,321.6,389.4,320.2,387.6,319.3z"/>
		<path class="st3" d="M390.6,313.3c-3.4-1.6-7.2-1.8-10.7-0.6c-0.8,0.3-1.2,1.1-0.9,1.9s1.1,1.2,1.9,0.9c2.7-0.9,5.7-0.8,8.4,0.5
			c2.6,1.3,4.6,3.5,5.6,6.3c0.2,0.3,0.5,0.6,0.8,0.8s0.7,0.2,1.2,0.1c0.8-0.3,1.2-1.1,0.9-1.9C396.5,317.8,394,314.9,390.6,313.3z"
			/>
		<path class="st3" d="M404.1,319.1c-1.8-5.3-5.6-9.5-10.6-11.9c-5-2.4-10.6-2.7-15.9-0.9c-0.8,0.3-1.2,1.1-0.9,1.9
			c0.3,0.8,1.1,1.2,1.9,0.9c4.5-1.5,9.3-1.3,13.6,0.8c4.3,2.1,7.5,5.7,9.1,10.2c0.2,0.3,0.5,0.6,0.8,0.8c0.3,0.2,0.7,0.2,1.1,0.1
			C404,320.7,404.4,319.9,404.1,319.1z"/>
		<circle class="st3" cx="383.8" cy="327.4" r="2.6"/>
	</g>
</g>
</svg>
