<?xml version="1.0" encoding="utf-8"?>
<svg version="1.1" id="Layer_1" xmlns="http://www.w3.org/2000/svg" xmlns:xlink="http://www.w3.org/1999/xlink" x="0px" y="0px"
	 viewBox="0 0 420 150" style="enable-background:new 0 0 420 150;" xml:space="preserve">
<style type="text/css">.st0{fill:#1E72B8;}.st1{fill:#2072B9;}
</style>
<g>
	<path class="st1" d="M192.5,101.7c-0.6-0.6-1.2-1.1-2-1.5c-0.7-0.4-1.5-0.8-2.2-1.2c-0.8-0.3-1.5-0.7-2.2-1c-0.7-0.3-1.4-0.7-2-1.1
		c-0.6-0.4-1-0.9-1.4-1.4c-0.3-0.5-0.5-1.2-0.5-1.9c0-0.5,0.1-1,0.3-1.5c0.2-0.5,0.5-0.8,0.8-1.2c0.4-0.3,0.8-0.6,1.4-0.8
		s1.2-0.3,2-0.3c0.8,0,1.5,0.1,2.2,0.3c0.6,0.2,1.2,0.4,1.7,0.7c0.5,0.2,0.9,0.5,1.2,0.7c0.3,0.2,0.6,0.3,0.7,0.3
		c0.1,0,0.2,0,0.3-0.1c0.1-0.1,0.1-0.2,0.2-0.3c0-0.1,0.1-0.3,0.1-0.5c0-0.2,0-0.4,0-0.7c0-0.3,0-0.5,0-0.6c0-0.2,0-0.3-0.1-0.4
		c0-0.1-0.1-0.2-0.1-0.3c0-0.1-0.1-0.2-0.3-0.3c-0.1-0.1-0.4-0.3-0.8-0.5c-0.4-0.2-0.9-0.4-1.4-0.6c-0.5-0.2-1.1-0.3-1.7-0.4
		c-0.6-0.1-1.2-0.2-1.8-0.2c-1.2,0-2.2,0.2-3.3,0.5s-1.9,0.8-2.6,1.4c-0.7,0.6-1.3,1.3-1.7,2.2c-0.4,0.9-0.6,1.9-0.6,3
		c0,1.1,0.2,2,0.5,2.8c0.4,0.8,0.8,1.5,1.4,2.1c0.6,0.6,1.2,1.1,1.9,1.5c0.7,0.4,1.5,0.8,2.2,1.2c0.8,0.3,1.5,0.7,2.2,1
		c0.7,0.3,1.4,0.7,1.9,1.1c0.6,0.4,1,0.9,1.4,1.4c0.3,0.5,0.5,1.2,0.5,2c0,0.7-0.1,1.3-0.4,1.9c-0.2,0.5-0.6,1-1.1,1.4
		c-0.5,0.4-1,0.7-1.7,0.9c-0.6,0.2-1.4,0.3-2.1,0.3c-1,0-1.9-0.1-2.7-0.4c-0.8-0.2-1.5-0.5-2-0.8c-0.6-0.3-1-0.5-1.4-0.8
		c-0.4-0.2-0.6-0.4-0.8-0.4c-0.1,0-0.2,0-0.3,0.1c-0.1,0-0.2,0.1-0.2,0.3c-0.1,0.1-0.1,0.3-0.1,0.5c0,0.2,0,0.5,0,0.8
		c0,0.4,0,0.8,0.1,1c0.1,0.3,0.2,0.5,0.4,0.6c0.2,0.2,0.4,0.4,0.9,0.6c0.4,0.2,0.9,0.5,1.5,0.7c0.6,0.2,1.3,0.4,2.1,0.6
		c0.8,0.2,1.6,0.2,2.5,0.2c1.3,0,2.5-0.2,3.6-0.5c1.1-0.3,2.1-0.9,2.9-1.5c0.8-0.7,1.5-1.5,1.9-2.5c0.5-1,0.7-2.1,0.7-3.4
		c0-1.1-0.2-2-0.5-2.8C193.5,102.9,193.1,102.3,192.5,101.7z"/>
	<path class="st1" d="M256.1,109c0-0.1-0.1-0.2-0.2-0.2c-0.1,0-0.2-0.1-0.3-0.1c-0.2,0-0.5,0.1-0.9,0.4c-0.4,0.3-0.8,0.6-1.4,0.9
		c-0.6,0.3-1.2,0.6-2,0.9c-0.8,0.3-1.7,0.4-2.8,0.4c-1.3,0-2.4-0.2-3.4-0.7c-1-0.5-1.8-1.1-2.5-2s-1.2-2-1.6-3.3
		c-0.4-1.3-0.6-2.8-0.6-4.5c0-1.7,0.2-3.3,0.6-4.6c0.4-1.3,0.9-2.5,1.6-3.4c0.7-0.9,1.5-1.6,2.5-2.1c1-0.5,2.1-0.7,3.3-0.7
		c1.1,0,2,0.1,2.8,0.4c0.8,0.3,1.5,0.6,2,0.9c0.5,0.3,1,0.6,1.3,0.9c0.3,0.3,0.6,0.4,0.8,0.4c0.1,0,0.2,0,0.3-0.1
		c0.1-0.1,0.1-0.2,0.2-0.3c0.1-0.1,0.1-0.3,0.1-0.5c0-0.2,0-0.4,0-0.7c0-0.3,0-0.5,0-0.6c0-0.2,0-0.3-0.1-0.5c0-0.1-0.1-0.2-0.1-0.3
		c-0.1-0.1-0.2-0.2-0.4-0.4c-0.2-0.2-0.5-0.4-1-0.7c-0.5-0.3-1-0.5-1.7-0.8c-0.6-0.2-1.3-0.4-2-0.5c-0.7-0.1-1.5-0.2-2.3-0.2
		c-1.8,0-3.4,0.3-4.8,1c-1.4,0.6-2.7,1.6-3.7,2.8c-1,1.2-1.9,2.7-2.4,4.4c-0.6,1.8-0.9,3.7-0.9,6c0,2.2,0.3,4.1,0.8,5.8
		c0.5,1.7,1.3,3.1,2.3,4.2c1,1.1,2.2,2,3.6,2.6c1.4,0.6,3,0.9,4.7,0.9c1,0,1.9-0.1,2.8-0.3c0.9-0.2,1.6-0.4,2.3-0.7
		c0.7-0.3,1.2-0.5,1.7-0.8c0.4-0.3,0.7-0.5,0.9-0.6c0.1-0.1,0.2-0.3,0.3-0.4c0.1-0.1,0.1-0.2,0.1-0.3c0-0.1,0.1-0.3,0.1-0.4
		c0-0.2,0-0.4,0-0.6c0-0.3,0-0.6,0-0.8C256.2,109.3,256.1,109.1,256.1,109z"/>
	<path class="st1" d="M223.3,111.4c-0.1-0.1-0.2-0.2-0.2-0.3c-0.1-0.1-0.2-0.1-0.3-0.1h-10.7v-9.6h9c0.1,0,0.2,0,0.3-0.1
		c0.1,0,0.2-0.1,0.2-0.2c0.1-0.1,0.1-0.3,0.1-0.4c0-0.2,0-0.4,0-0.6c0-0.3,0-0.5,0-0.7c0-0.2-0.1-0.3-0.1-0.5
		c-0.1-0.1-0.1-0.2-0.2-0.3c-0.1-0.1-0.2-0.1-0.3-0.1h-9v-8.4h10.5c0.1,0,0.2,0,0.3-0.1c0.1-0.1,0.2-0.1,0.2-0.3
		c0.1-0.1,0.1-0.3,0.1-0.5c0-0.2,0.1-0.4,0.1-0.7c0-0.3,0-0.5-0.1-0.7c0-0.2-0.1-0.3-0.1-0.5c-0.1-0.1-0.1-0.2-0.2-0.3
		c-0.1,0-0.2-0.1-0.3-0.1h-12.8c-0.3,0-0.6,0.1-0.9,0.3c-0.3,0.2-0.4,0.6-0.4,1.1v24c0,0.5,0.1,0.9,0.4,1.1c0.3,0.2,0.6,0.3,0.9,0.3
		h12.9c0.1,0,0.2,0,0.3-0.1c0.1,0,0.2-0.1,0.2-0.3c0.1-0.1,0.1-0.3,0.1-0.5c0-0.2,0-0.4,0-0.7c0-0.3,0-0.5,0-0.7
		C223.4,111.7,223.4,111.5,223.3,111.4z"/>
	<path class="st1" d="M403.3,87.1c-0.3,0-0.7-0.1-1.2-0.1c-0.4,0-0.7,0-0.9,0c-0.2,0-0.4,0.1-0.5,0.1c-0.1,0.1-0.2,0.1-0.3,0.2
		c-0.1,0.1-0.1,0.2-0.2,0.4l-3.7,7.8c-0.3,0.8-0.7,1.5-1,2.3c-0.3,0.8-0.7,1.6-1,2.4h0c-0.4-0.8-0.7-1.6-1.1-2.4
		c-0.3-0.8-0.7-1.6-1-2.3l-3.7-7.7c-0.1-0.1-0.1-0.3-0.2-0.3c-0.1-0.1-0.2-0.2-0.3-0.2c-0.2,0-0.4-0.1-0.6-0.1c-0.3,0-0.6,0-1,0
		c-0.5,0-0.8,0-1.1,0c-0.3,0-0.5,0.1-0.6,0.2c-0.1,0.1-0.1,0.2-0.1,0.4c0,0.2,0.1,0.4,0.3,0.7l7.6,15.2v9.9c0,0.1,0,0.2,0.1,0.3
		c0.1,0.1,0.2,0.2,0.3,0.2c0.1,0,0.3,0.1,0.6,0.1c0.2,0,0.5,0.1,0.9,0.1c0.3,0,0.6,0,0.9-0.1c0.2,0,0.4-0.1,0.6-0.1
		c0.1,0,0.2-0.1,0.3-0.2c0.1-0.1,0.1-0.2,0.1-0.3v-9.9l7.6-15.2c0.2-0.3,0.2-0.5,0.3-0.7c0-0.2,0-0.3-0.1-0.4
		C403.8,87.2,403.6,87.1,403.3,87.1z"/>
	<path class="st1" d="M289.7,87.2c-0.1,0-0.3-0.1-0.5-0.1c-0.2,0-0.5-0.1-0.8-0.1c-0.3,0-0.6,0-0.9,0.1c-0.2,0-0.4,0.1-0.5,0.1
		c-0.1,0-0.2,0.1-0.3,0.2s-0.1,0.2-0.1,0.3v16.5c0,1.2-0.2,2.3-0.4,3.2c-0.3,0.9-0.7,1.7-1.3,2.3c-0.6,0.6-1.3,1.1-2.1,1.4
		c-0.8,0.3-1.7,0.5-2.8,0.5c-1,0-1.9-0.2-2.7-0.5c-0.8-0.3-1.5-0.8-2.1-1.4c-0.6-0.6-1-1.4-1.3-2.3c-0.3-0.9-0.5-2-0.5-3.3V87.7
		c0-0.1,0-0.2-0.1-0.3s-0.2-0.2-0.3-0.2c-0.1,0-0.3-0.1-0.5-0.1c-0.2,0-0.5-0.1-0.9-0.1c-0.4,0-0.6,0-0.9,0.1
		c-0.2,0-0.4,0.1-0.5,0.1c-0.1,0-0.2,0.1-0.3,0.2c-0.1,0.1-0.1,0.2-0.1,0.3v16.7c0,1.6,0.2,3.1,0.7,4.4c0.5,1.3,1.1,2.3,2,3.2
		c0.9,0.8,1.9,1.5,3.1,1.9c1.2,0.4,2.6,0.6,4.1,0.6c1.6,0,3.1-0.2,4.3-0.7c1.3-0.5,2.4-1.1,3.2-2s1.6-2,2.1-3.3
		c0.5-1.3,0.7-2.7,0.7-4.4h0V87.7c0-0.1,0-0.2-0.1-0.3C290,87.3,289.9,87.2,289.7,87.2z"/>
	<path class="st1" d="M341.4,87.2c-0.1,0-0.3-0.1-0.5-0.1c-0.2,0-0.5-0.1-0.9-0.1c-0.3,0-0.6,0-0.8,0.1c-0.2,0-0.4,0.1-0.6,0.1
		c-0.1,0-0.3,0.1-0.3,0.2c-0.1,0.1-0.1,0.2-0.1,0.3v25.8c0,0.1,0,0.2,0.1,0.3c0.1,0.1,0.2,0.2,0.3,0.2c0.1,0,0.3,0.1,0.6,0.1
		c0.2,0,0.5,0.1,0.9,0.1c0.3,0,0.6,0,0.9-0.1c0.2,0,0.4-0.1,0.5-0.1s0.2-0.1,0.3-0.2c0.1-0.1,0.1-0.2,0.1-0.3V87.7
		c0-0.1,0-0.2-0.1-0.3C341.7,87.3,341.6,87.2,341.4,87.2z"/>
	<path class="st1" d="M374.6,87.5c-0.1-0.1-0.1-0.2-0.2-0.3c-0.1,0-0.2-0.1-0.3-0.1h-18.7c-0.1,0-0.2,0-0.3,0.1
		c-0.1,0-0.2,0.1-0.2,0.3c-0.1,0.1-0.1,0.3-0.1,0.5c0,0.2-0.1,0.4-0.1,0.7c0,0.3,0,0.5,0.1,0.7c0,0.2,0.1,0.3,0.1,0.5
		c0.1,0.1,0.1,0.2,0.2,0.3c0.1,0,0.2,0.1,0.3,0.1h7.6v23.3c0,0.1,0,0.2,0.1,0.3c0.1,0.1,0.2,0.2,0.3,0.2c0.1,0,0.3,0.1,0.6,0.1
		c0.2,0,0.5,0.1,0.9,0.1c0.3,0,0.6,0,0.9-0.1c0.2,0,0.4-0.1,0.5-0.1c0.1,0,0.2-0.1,0.3-0.2c0.1-0.1,0.1-0.2,0.1-0.3V90.2h7.6
		c0.1,0,0.2,0,0.3-0.1c0.1,0,0.2-0.1,0.2-0.3c0.1-0.1,0.1-0.3,0.1-0.5s0-0.4,0-0.7s0-0.5,0-0.7C374.7,87.8,374.6,87.6,374.6,87.5z"
		/>
	<path class="st1" d="M323.6,112l-2.4-5.9c-0.3-0.7-0.6-1.3-0.8-1.8c-0.3-0.5-0.6-1-0.9-1.4c-0.3-0.4-0.6-0.8-1-1.1
		c-0.4-0.3-0.8-0.5-1.2-0.7c0.8-0.3,1.5-0.6,2.1-1c0.6-0.4,1.2-0.9,1.6-1.4c0.5-0.6,0.8-1.2,1-1.9c0.2-0.7,0.4-1.5,0.4-2.4
		c0-0.9-0.1-1.8-0.4-2.6c-0.3-0.8-0.7-1.5-1.2-2c-0.5-0.6-1.2-1.1-2-1.5s-1.7-0.7-2.8-0.9c-0.4,0-0.8-0.1-1.2-0.1
		c-0.5,0-1-0.1-1.7-0.1h-5.7c-0.3,0-0.6,0.1-0.9,0.3c-0.3,0.2-0.4,0.6-0.4,1.1v24.9c0,0.1,0,0.2,0.1,0.3c0.1,0.1,0.2,0.2,0.3,0.2
		c0.1,0,0.3,0.1,0.5,0.1c0.2,0,0.5,0.1,0.9,0.1c0.3,0,0.6,0,0.9-0.1c0.2,0,0.4-0.1,0.5-0.1c0.1,0,0.2-0.1,0.3-0.2
		c0.1-0.1,0.1-0.2,0.1-0.3v-11.5h2.4c0.8,0,1.5,0.1,2.1,0.4c0.6,0.2,1.1,0.6,1.5,1c0.4,0.4,0.8,1,1.1,1.6c0.3,0.6,0.6,1.3,0.9,2
		l2.5,6.3c0.1,0.2,0.1,0.3,0.2,0.4c0.1,0.1,0.2,0.2,0.3,0.3c0.1,0.1,0.3,0.1,0.5,0.1c0.2,0,0.5,0,0.9,0c0.4,0,0.8,0,1,0
		c0.2,0,0.4-0.1,0.6-0.1c0.1-0.1,0.2-0.1,0.3-0.2c0-0.1,0.1-0.2,0.1-0.3c0-0.1,0-0.3-0.1-0.5S323.8,112.5,323.6,112z M315.7,98.8
		c-0.7,0.2-1.5,0.3-2.4,0.3h-3.5v-9.1h3c0.7,0,1.3,0,1.7,0.1c0.4,0,0.8,0.1,1.2,0.2c1.1,0.3,1.9,0.8,2.4,1.6
		c0.5,0.7,0.7,1.6,0.7,2.7c0,0.7-0.1,1.3-0.3,1.8c-0.2,0.6-0.6,1-1,1.4C316.9,98.3,316.3,98.6,315.7,98.8z"/>
	<path class="st1" d="M215.8,73.5h21.1c0.2,0,0.3,0,0.5-0.1c0.2-0.1,0.3-0.2,0.4-0.4c0.1-0.2,0.2-0.5,0.2-0.8c0-0.3,0.1-0.7,0.1-1.1
		c0-0.5,0-0.8-0.1-1.1c0-0.3-0.1-0.6-0.2-0.7c-0.1-0.2-0.2-0.3-0.4-0.4c-0.2-0.1-0.3-0.1-0.5-0.1h-17.4V52.9h14.7
		c0.2,0,0.3,0,0.5-0.1c0.1-0.1,0.3-0.2,0.4-0.4c0.1-0.2,0.2-0.4,0.2-0.7c0-0.3,0.1-0.6,0.1-1.1c0-0.4,0-0.8-0.1-1.1
		c0-0.3-0.1-0.6-0.2-0.7c-0.1-0.2-0.2-0.3-0.4-0.4c-0.1-0.1-0.3-0.2-0.5-0.2h-14.7V34.4h17.2c0.2,0,0.3,0,0.5-0.1s0.3-0.2,0.4-0.4
		c0.1-0.2,0.2-0.4,0.2-0.7c0.1-0.3,0.1-0.7,0.1-1.1c0-0.5,0-0.8-0.1-1.1c-0.1-0.3-0.1-0.6-0.2-0.8c-0.1-0.2-0.2-0.4-0.4-0.4
		s-0.3-0.1-0.5-0.1h-20.9c-0.5,0-1,0.2-1.5,0.5c-0.5,0.3-0.7,1-0.7,1.9v39.2c0,0.9,0.2,1.5,0.7,1.8
		C214.8,73.3,215.3,73.5,215.8,73.5z"/>
	<path class="st1" d="M285.7,73.5h21.1c0.2,0,0.3,0,0.5-0.1c0.2-0.1,0.3-0.2,0.4-0.4c0.1-0.2,0.2-0.5,0.2-0.8c0-0.3,0.1-0.7,0.1-1.1
		c0-0.5,0-0.8-0.1-1.1c0-0.3-0.1-0.6-0.2-0.7c-0.1-0.2-0.2-0.3-0.4-0.4c-0.2-0.1-0.3-0.1-0.5-0.1h-17.4V52.9h14.7
		c0.2,0,0.3,0,0.5-0.1s0.3-0.2,0.4-0.4c0.1-0.2,0.2-0.4,0.2-0.7c0-0.3,0.1-0.6,0.1-1.1c0-0.4,0-0.8-0.1-1.1c0-0.3-0.1-0.6-0.2-0.7
		c-0.1-0.2-0.2-0.3-0.4-0.4c-0.1-0.1-0.3-0.2-0.5-0.2h-14.7V34.4h17.2c0.2,0,0.3,0,0.5-0.1s0.3-0.2,0.4-0.4c0.1-0.2,0.2-0.4,0.2-0.7
		c0.1-0.3,0.1-0.7,0.1-1.1c0-0.5,0-0.8-0.1-1.1c-0.1-0.3-0.1-0.6-0.2-0.8c-0.1-0.2-0.2-0.4-0.4-0.4s-0.3-0.1-0.5-0.1h-20.9
		c-0.5,0-1,0.2-1.5,0.5c-0.5,0.3-0.7,1-0.7,1.9v39.2c0,0.9,0.2,1.5,0.7,1.8C284.7,73.3,285.2,73.5,285.7,73.5z"/>
	<path class="st1" d="M406.2,71.4l-14.7-40.8c-0.1-0.2-0.2-0.5-0.4-0.6c-0.2-0.2-0.4-0.3-0.7-0.4c-0.3-0.1-0.7-0.2-1.2-0.2
		s-1.1-0.1-1.8-0.1c-0.7,0-1.2,0-1.7,0.1c-0.4,0-0.8,0.1-1.1,0.2c-0.3,0.1-0.5,0.2-0.6,0.4c-0.1,0.2-0.3,0.4-0.4,0.6l-14.7,40.8
		c-0.2,0.5-0.3,0.9-0.3,1.2c0,0.3,0.1,0.5,0.2,0.7c0.2,0.2,0.5,0.3,0.9,0.3c0.4,0.1,1,0.1,1.6,0.1c0.6,0,1.1,0,1.5-0.1
		c0.4,0,0.7-0.1,0.9-0.2c0.2-0.1,0.4-0.2,0.5-0.4c0.1-0.1,0.2-0.3,0.3-0.5l3.6-10.6h18.3l3.8,10.7c0.1,0.2,0.2,0.4,0.3,0.5
		c0.1,0.1,0.3,0.2,0.5,0.3c0.2,0.1,0.5,0.1,1,0.2c0.4,0,1,0.1,1.7,0.1c0.7,0,1.3,0,1.7-0.1c0.4,0,0.7-0.1,0.9-0.3
		c0.2-0.2,0.3-0.4,0.3-0.7C406.5,72.3,406.4,71.9,406.2,71.4z M379.6,57.3l7.6-21.9h0l7.7,21.9H379.6z"/>
	<path class="st1" d="M358.5,73c0.1,0.2,0.3,0.3,0.5,0.4c0.2,0.1,0.6,0.2,1,0.3c0.4,0.1,0.9,0.1,1.5,0.1c0.6,0,1.1,0,1.5-0.1
		c0.4,0,0.7-0.1,0.9-0.2c0.2-0.1,0.4-0.2,0.5-0.3c0.1-0.1,0.2-0.3,0.2-0.5c0-0.1,0-0.2,0-0.3c0-0.1,0-0.2-0.1-0.4
		c0-0.2-0.1-0.3-0.2-0.5s-0.2-0.4-0.2-0.7l-3.4-10c-0.5-1.5-1.1-2.9-1.6-4c-0.6-1.1-1.2-2.1-1.8-2.9s-1.4-1.5-2.3-2
		c-0.9-0.5-1.9-1-3-1.4v-0.1c1-0.3,1.9-0.7,2.6-1.2c0.8-0.5,1.4-1.1,2-1.8c0.6-0.7,1.1-1.6,1.6-2.6c0.5-1,1-2.2,1.4-3.6l3.1-9
		c0.1-0.4,0.2-0.8,0.3-1.1c0.1-0.3,0.1-0.6,0.1-0.8c0-0.2,0-0.3-0.1-0.5c-0.1-0.1-0.2-0.2-0.4-0.3c-0.2-0.1-0.5-0.2-0.9-0.2
		c-0.4,0-0.8-0.1-1.4-0.1c-0.6,0-1.2,0-1.5,0.1s-0.7,0.1-0.9,0.3c-0.2,0.1-0.4,0.3-0.5,0.4c-0.1,0.2-0.2,0.4-0.3,0.6l-3.2,10.3
		c-0.3,1.2-0.8,2.2-1.3,3.1s-1.2,1.7-1.9,2.3c-0.8,0.6-1.7,1.1-2.7,1.4c-1,0.3-2.2,0.5-3.6,0.5h-2v-18c0-0.2,0-0.3-0.1-0.4
		c-0.1-0.1-0.2-0.2-0.5-0.3s-0.5-0.1-0.9-0.2c-0.4-0.1-0.8-0.1-1.4-0.1c-0.5,0-1,0-1.4,0.1c-0.4,0.1-0.7,0.1-0.9,0.2
		s-0.4,0.2-0.4,0.3s-0.1,0.3-0.1,0.4v18h-2c-1.4,0-2.7-0.1-3.7-0.4c-1-0.3-1.9-0.7-2.6-1.3c-0.7-0.6-1.4-1.4-1.9-2.3
		c-0.5-0.9-0.9-2-1.3-3.2L322,30.7c-0.1-0.2-0.2-0.4-0.3-0.6s-0.2-0.3-0.5-0.4c-0.2-0.1-0.5-0.2-0.9-0.3s-0.9-0.1-1.6-0.1
		c-0.6,0-1,0-1.4,0.1c-0.4,0-0.6,0.1-0.9,0.2c-0.2,0.1-0.4,0.2-0.4,0.3c-0.1,0.1-0.1,0.3-0.1,0.5c0,0.3,0,0.5,0.1,0.8
		c0.1,0.3,0.2,0.7,0.3,1.1l3.1,9.2c0.5,1.5,1,2.8,1.5,3.8c0.5,1.1,1.1,2,1.7,2.7c0.6,0.7,1.3,1.3,2,1.8c0.7,0.4,1.6,0.8,2.5,1v0
		c-1.1,0.3-2.1,0.8-2.9,1.3s-1.6,1.2-2.3,1.9c-0.7,0.8-1.3,1.7-1.9,2.8c-0.6,1.1-1.1,2.4-1.6,4l-3.4,9.9c-0.1,0.3-0.2,0.5-0.2,0.7
		c-0.1,0.2-0.1,0.4-0.1,0.5c0,0.2-0.1,0.3-0.1,0.4c0,0.1,0,0.2,0,0.3c0,0.2,0,0.4,0.1,0.5c0.1,0.1,0.2,0.3,0.5,0.3
		c0.2,0.1,0.5,0.2,0.9,0.2c0.4,0,0.9,0.1,1.4,0.1c0.7,0,1.2,0,1.6-0.1c0.4,0,0.7-0.1,0.9-0.2c0.2-0.1,0.4-0.3,0.5-0.4
		s0.2-0.4,0.3-0.6l3.6-11.1c0.4-1.2,0.9-2.4,1.5-3.3c0.6-1,1.3-1.8,2.1-2.5c0.8-0.7,1.8-1.2,2.9-1.5c1.1-0.3,2.4-0.5,3.9-0.5h2v19.2
		c0,0.2,0,0.3,0.1,0.5c0.1,0.1,0.2,0.2,0.4,0.3c0.2,0.1,0.5,0.1,0.9,0.2c0.4,0.1,0.8,0.1,1.4,0.1c0.6,0,1,0,1.4-0.1
		c0.4-0.1,0.7-0.1,0.9-0.2c0.2-0.1,0.4-0.2,0.5-0.3c0.1-0.1,0.1-0.3,0.1-0.5V53.4h2c1.3,0,2.5,0.1,3.6,0.4c1.1,0.3,2,0.8,2.8,1.4
		c0.8,0.6,1.5,1.4,2.1,2.4c0.6,1,1.1,2.2,1.6,3.6l3.6,11.1C358.3,72.6,358.4,72.8,358.5,73z"/>
	<path class="st1" d="M201.5,51.5c-1.2-1.1-2.7-1.9-4.5-2.4c-1.8-0.6-4.1-0.8-6.8-0.8h-8.1V34.5h19.2c0.2,0,0.4-0.1,0.5-0.2
		c0.1-0.1,0.3-0.2,0.4-0.4s0.2-0.5,0.2-0.8c0-0.3,0.1-0.7,0.1-1.1c0-0.5,0-0.8-0.1-1.1c0-0.3-0.1-0.6-0.2-0.8
		c-0.1-0.2-0.2-0.4-0.4-0.4c-0.2-0.1-0.3-0.1-0.5-0.1h-22.8c-0.5,0-1,0.2-1.5,0.5c-0.5,0.3-0.7,1-0.7,1.9v39.2
		c0,0.9,0.2,1.5,0.7,1.9c0.5,0.4,0.9,0.5,1.5,0.5H189c3.4,0,6.1-0.4,8.1-1.1c2-0.7,3.5-1.7,4.7-2.9c1.2-1.2,2.1-2.6,2.6-4.2
		c0.5-1.6,0.8-3.2,0.8-4.9c0-1.9-0.3-3.5-1-5C203.6,53.9,202.7,52.6,201.5,51.5z M198.6,64.1c-0.4,1-1,1.8-1.7,2.5
		c-0.7,0.7-1.7,1.2-2.8,1.6c-1.2,0.4-2.6,0.5-4.5,0.5h-7.5V52.9h7.3c1.9,0,3.4,0.2,4.6,0.6c1.2,0.4,2.1,0.9,2.9,1.6
		c0.7,0.7,1.3,1.5,1.7,2.5c0.4,1,0.6,2.1,0.6,3.3C199.1,62.1,199,63.2,198.6,64.1z"/>
	<path class="st1" d="M273.5,48.4c0.7-1.8,1.1-3.7,1.1-5.9c0-1.6-0.2-3.2-0.7-4.5c-0.5-1.4-1.1-2.6-2-3.6s-1.9-1.9-3.1-2.6
		c-1.2-0.7-2.4-1.2-3.6-1.5c-1.2-0.3-2.2-0.4-3.1-0.5c-0.9-0.1-1.8-0.1-2.7-0.1h-9.4c-0.6,0-1.1,0.2-1.6,0.6s-0.7,1-0.7,1.9v40.6
		c0,0.2,0,0.3,0.1,0.5c0.1,0.1,0.3,0.2,0.5,0.3c0.2,0.1,0.5,0.2,0.9,0.2c0.4,0.1,0.8,0.1,1.4,0.1s1,0,1.4-0.1
		c0.4-0.1,0.7-0.1,0.9-0.2c0.2-0.1,0.4-0.2,0.5-0.3c0.1-0.1,0.2-0.3,0.2-0.5V56.8h5c2.7,0,5.1-0.3,7-1c2-0.7,3.6-1.6,5-2.9
		C271.8,51.6,272.8,50.1,273.5,48.4z M267.8,46.5c-0.4,1.1-1,2.1-1.8,2.9c-0.8,0.8-1.8,1.4-2.9,1.9c-1.2,0.5-2.6,0.7-4.4,0.7h-5.3
		V34.4h5.4c1,0,2,0.1,3.1,0.2c1.1,0.2,2.1,0.5,3.1,1.1c1,0.6,1.8,1.5,2.5,2.7c0.7,1.2,1,2.7,1,4.5C268.5,44.2,268.3,45.4,267.8,46.5
		z"/>
	<path class="st1" d="M82.6,5.8c-38.2,0-69.2,31-69.2,69.2c0,38.2,31,69.2,69.2,69.2c38.2,0,69.2-31,69.2-69.2S120.8,5.8,82.6,5.8z
		 M141.4,81.7l-32.3,32.3L82.6,87.3L56,113.9L23.7,81.7l5.6-5.6L56,102.6l21-21L50.3,55l32.3-32.3L114.8,55L88.2,81.7l21,21
		L135.8,76L141.4,81.7z"/>
	
		<rect x="67.7" y="40.2" transform="matrix(0.7071 -0.7071 0.7071 0.7071 -14.7336 74.5102)" class="st1" width="29.7" height="29.7"/>
</g>
</svg>
